
        <svg xmlns="http://www.w3.org/2000/svg" xmlns:xlink="http://www.w3.org/1999/xlink" version="1.1" width="3192" 
        height="3192" viewBox="0 0 3192 3192">
			
			<g transform="scale(9.6) translate(10, 10)">
				<defs id="SvgjsDefs5575"></defs><g id="SvgjsG5576" featureKey="rootContainer" transform="matrix(6.25,0,0,6.25,0,0)" fill="#43b33c"><circle cx="25" cy="25" r="25"></circle></g><g id="SvgjsG5577" featureKey="symbolFeature-0" transform="matrix(0.9052731685506732,0,0,0.9052731685506732,110.73681707862332,82.73634329913789)" fill="#000000"><path xmlns="http://www.w3.org/2000/svg" d="M37.156,88.325c0.055-0.165,5.626-16.541,11.969-32.71c2.241-5.716,4.213-10.482,5.951-14.469  c-6.801-16.531-13.719-30.913-17.194-30.913C29.507,10.233,2.5,89.767,2.5,89.767h34.167L37.156,88.325z M19.753,49.038  c0,0,13.938-35.744,17.978-35.744c3.76-0.003,15.449,29.091,15.449,29.091l-7.337-5.271l-9.375,9.816l-5.946-5.615L19.753,49.038z"></path><path xmlns="http://www.w3.org/2000/svg" d="M68.551,24.656c-6.849,0-28.949,65.067-28.949,65.067H97.5C97.5,89.724,75.235,24.656,68.551,24.656z M69.725,59.1  l-8.691-9.099l-6.179,4.883c0,0,10.035-26.772,13.696-26.971c3.742-0.202,16.046,33.141,16.046,33.141l-9.361-7.158L69.725,59.1z"></path></g><g id="SvgjsG5578" featureKey="nameFeature-0" transform="matrix(0.8000854583466862,0,0,0.8000854583466862,56,167.77460055853135)" fill="#000000"><path d="M12.52 33.32 c1.12 2.36 2.28 4.88 5.4 4.44 c-1.04 2.96 -4.16 3.84 -6.36 2.04 c-1.32 -1.08 -2.32 -3.48 -3.28 -5.16 c-0.52 0.12 -1.08 0.2 -1.6 0.28 l0 2.64 c0 1.2 1.2 2.24 2.32 2.44 l-9 0 c1.04 -0.2 2.32 -1.24 2.32 -2.4 l0 -14.48 c0 -1.12 -1.28 -2.16 -2.32 -2.36 l10.16 0 c8.08 0 10 8.96 2.36 12.56 z M10.12 30.28 c4.12 -1.64 3.64 -6.04 -0.36 -6.04 l-3.08 0 l0 6.8 c1.12 -0.12 2.36 -0.32 3.44 -0.76 z M31.621000000000002 24.72 l-5.04 0 l0 4.04 c3.36 -1.88 5.84 -2.2 6.52 2.36 c-1.28 -0.68 -4.16 0.88 -6.52 2.2 l0 2.68 l5.04 0 c0.96 0 3.04 -0.36 4.16 -2.4 l-0.96 6.4 l-14.92 0 c1.04 -0.2 2.32 -1.24 2.32 -2.4 l0 -14.48 c0 -1.12 -1.28 -2.2 -2.32 -2.4 l13.6 0 c0.64 0 0.96 -0.04 1.28 -0.32 l1 6.72 c-1.12 -2.04 -3.2 -2.4 -4.16 -2.4 z M40.402 32.480000000000004 c-0.28 5.12 8.68 5.28 8.68 1.64 c0 -2 -7.24 -1.52 -9.56 -3.56 c-3.04 -2.64 -2.12 -8.24 2.6 -9.72 c2.24 -0.72 5.36 -0.76 7.6 -0.04 c1.92 0.64 2.32 0.88 3.36 0.32 l-2.76 6.08 c0.04 -0.68 -0.16 -1.24 -0.52 -1.72 c-1.88 -2.48 -7.96 -2.32 -7.96 0.92 c0 2.84 9.44 0.64 11.32 5.84 c1.16 3.2 -1.08 7.48 -6.04 8.08 c-3.24 0.4 -6.64 -0.44 -8.16 -2.2 c-1.32 -1.52 -1.32 -4.04 1.44 -5.64 z M68.743 24.72 l-2.36 0 l0 12.84 c0 1.2 1.2 2.24 2.32 2.44 l-9 0 c1.04 -0.2 2.32 -1.24 2.32 -2.4 l0 -12.88 l-2.4 0 c-0.92 0 -3 0.36 -4.16 2.4 l1 -6.72 c0.36 0.28 0.64 0.32 1.28 0.32 l12.88 0 c0.68 0 0.96 -0.04 1.28 -0.32 l1.04 6.72 c-1.16 -2.04 -3.24 -2.4 -4.2 -2.4 z M96.10500000000002 33.04 c2.72 0.24 3.4 5.6 -0.84 6.84 c-1.08 0.32 -2.2 0.4 -3.24 0.28 c-11.6 -1.04 -10.76 -19.72 0.92 -19.72 c1.04 0 2.08 0.24 3.2 0.6 c1.08 0.36 1.84 0.08 2.4 -0.28 l-1.8 6.28 c-0.24 -1.16 -1.76 -2.32 -3.88 -2.32 c-6.08 0 -6.6 10.64 -0.48 11.2 c2.08 0.16 3.8 -1.08 3.72 -2.88 z M118.52600000000001 30.119999999999997 c0.2 13.6 -18.12 13.68 -17.96 0.08 c0.08 -9.56 9.36 -12.2 14.56 -7.92 c0.84 0.64 1.12 1.44 0.88 2.32 c0.36 0.04 0.96 -0.4 1.52 0.84 c0.6 1.28 0.96 2.88 1 4.68 z M104.88600000000001 30.04 c-0.28 7.84 9.4 8 9.32 0.24 c0 -0.92 -0.16 -1.76 -0.4 -2.44 c-0.88 0.4 -1.72 0.4 -1.88 0.2 c1.08 -1.16 0.84 -2.32 -0.56 -2.96 c-2.72 -1.32 -6.36 0.32 -6.48 4.96 z M122.867 33 l0 -9.88 c0 -1.12 -1.28 -2.16 -2.32 -2.36 l9 0 c-1.12 0.2 -2.32 1.24 -2.32 2.4 c0 3.2 0.04 6.16 0.04 9.32 c-0.04 5.36 7.08 5.36 7.04 0 c0 -3.16 0.04 -6.12 0.04 -9.32 c0 -1.16 -1.24 -2.2 -2.32 -2.4 l9 0 c-1.04 0.2 -2.32 1.24 -2.32 2.36 l0 9.88 c0 9.72 -15.84 9.72 -15.84 0 z M152.008 20.76 c-1.92 0.36 -2.84 1.92 -1.84 3.48 c1.44 2.32 4.56 3.56 7.24 5.56 l0 -6.68 c0 -1.12 -1.28 -2.16 -2.32 -2.36 l9 0 c-1.12 0.2 -2.32 1.24 -2.32 2.4 l0 14.4 c0 1.2 1.2 2.24 2.32 2.44 l-9 0 c2.2 -0.4 2.84 -2.68 1.92 -4.48 c-1.32 -2.6 -4.56 -3.88 -7.32 -5.88 l0 7.92 c0 1.2 1.2 2.24 2.32 2.44 l-9 0 c1.04 -0.2 2.32 -1.24 2.32 -2.4 l0 -14.48 c0 -1.12 -1.28 -2.16 -2.32 -2.36 l9 0 z M179.34900000000002 24.72 l-2.36 0 l0 12.84 c0 1.2 1.2 2.24 2.32 2.44 l-9 0 c1.04 -0.2 2.32 -1.24 2.32 -2.4 l0 -12.88 l-2.4 0 c-0.92 0 -3 0.36 -4.16 2.4 l1 -6.72 c0.36 0.28 0.64 0.32 1.28 0.32 l12.88 0 c0.68 0 0.96 -0.04 1.28 -0.32 l1.04 6.72 c-1.16 -2.04 -3.24 -2.4 -4.2 -2.4 z M198.05000000000004 33.32 c1.12 2.36 2.28 4.88 5.4 4.44 c-1.04 2.96 -4.16 3.84 -6.36 2.04 c-1.32 -1.08 -2.32 -3.48 -3.28 -5.16 c-0.52 0.12 -1.08 0.2 -1.6 0.28 l0 2.64 c0 1.2 1.2 2.24 2.32 2.44 l-9 0 c1.04 -0.2 2.32 -1.24 2.32 -2.4 l0 -14.48 c0 -1.12 -1.28 -2.16 -2.32 -2.36 l10.16 0 c8.08 0 10 8.96 2.36 12.56 z M195.65000000000003 30.28 c4.12 -1.64 3.64 -6.04 -0.36 -6.04 l-3.08 0 l0 6.8 c1.12 -0.12 2.36 -0.32 3.44 -0.76 z M214.43100000000004 20.76 c-1.12 0.2 -2.32 1.24 -2.32 2.4 l0 14.4 c0 1.2 1.2 2.24 2.32 2.44 l-9 0 c1.04 -0.2 2.32 -1.24 2.32 -2.4 l0 -14.48 c0 -1.12 -1.28 -2.16 -2.32 -2.36 l9 0 z M228.13200000000003 24.72 l-5.04 0 l0 4.04 c3.36 -1.88 5.84 -2.2 6.52 2.36 c-1.28 -0.68 -4.16 0.88 -6.52 2.2 l0 2.68 l5.04 0 c0.96 0 3.04 -0.36 4.16 -2.4 l-0.96 6.4 l-14.92 0 c1.04 -0.2 2.32 -1.24 2.32 -2.4 l0 -14.48 c0 -1.12 -1.28 -2.2 -2.32 -2.4 l13.6 0 c0.64 0 0.96 -0.04 1.28 -0.32 l1 6.72 c-1.12 -2.04 -3.2 -2.4 -4.16 -2.4 z M236.913 32.480000000000004 c-0.28 5.12 8.68 5.28 8.68 1.64 c0 -2 -7.24 -1.52 -9.56 -3.56 c-3.04 -2.64 -2.12 -8.24 2.6 -9.72 c2.24 -0.72 5.36 -0.76 7.6 -0.04 c1.92 0.64 2.32 0.88 3.36 0.32 l-2.76 6.08 c0.04 -0.68 -0.16 -1.24 -0.52 -1.72 c-1.88 -2.48 -7.96 -2.32 -7.96 0.92 c0 2.84 9.44 0.64 11.32 5.84 c1.16 3.2 -1.08 7.48 -6.04 8.08 c-3.24 0.4 -6.64 -0.44 -8.16 -2.2 c-1.32 -1.52 -1.32 -4.04 1.44 -5.64 z"></path></g><g id="SvgjsG5579" featureKey="sloganFeature-0" transform="matrix(0.6854049733230271,0,0,0.6854049733230271,120.45167621743751,206.99792613840677)" fill="#000000"><path d="M6.22 15.620000000000001 c-0.66 0 -1.34 -0.26 -2.06 -0.78 c-0.22 -0.16 -0.38 -0.24 -0.48 -0.24 s-0.18 0.04 -0.2 0.14 s-0.04 0.26 -0.02 0.5 l-2.66 0 c0 -0.36 0.02 -0.72 0.08 -1.06 s0.16 -0.76 0.32 -1.22 s0.44 -0.84 0.82 -1.14 c0.38 -0.28 0.86 -0.42 1.44 -0.42 c0.66 0 1.34 0.26 2.06 0.78 c0.22 0.16 0.38 0.24 0.48 0.24 s0.18 -0.04 0.2 -0.14 s0.04 -0.26 0.02 -0.5 l2.66 0 c0 0.36 -0.02 0.72 -0.08 1.06 s-0.16 0.76 -0.32 1.22 s-0.44 0.84 -0.82 1.12 c-0.38 0.3 -0.86 0.44 -1.44 0.44 z M11.861500000000001 14.18 c0 3.14 2.66 5.84 6.04 5.84 c1 0 1.94 -0.2 2.8 -0.62 l0 0.6 l3.24 0 l0 -0.18 c0 -1.88 0.02 -3.76 0.02 -5.64 c0 -3.18 -0.02 -6.38 -0.02 -9.56 l0 -0.2 l-3.18 0 l0 4.6 c-0.88 -0.44 -1.84 -0.66 -2.86 -0.66 c-3.38 0 -6.04 2.7 -6.04 5.82 z M19.9015 16.16 c-0.54 0.54 -1.2 0.82 -2 0.82 c-1.58 0 -2.8 -1.32 -2.8 -2.8 c0 -1.46 1.22 -2.78 2.8 -2.78 c0.8 0 1.46 0.3 2 0.82 c0.4 0.4 0.8 1.1 0.8 1.62 l0 0.7 c0 0.52 -0.4 1.24 -0.8 1.62 z M28.503 18.36 c1.14 1.22 2.68 1.64 4.36 1.64 c0.9 0 1.84 -0.14 2.68 -0.5 l0 0.5 l3.24 0 l0 -11.6 l-3.56 0 l0 5.6 c0 1.56 -0.66 2.58 -2.36 2.58 c-1.72 0 -2.34 -1.04 -2.34 -2.58 l0 -5.6 l-3.58 0 l0 5.78 c0 1.54 0.44 3 1.56 4.18 z M53.804500000000004 8.34 c3.76 0 4.78 2.44 4.78 5.46 l0 6.2 l-3.24 0 l-0.02 -6.32 c0 -1.16 -0.66 -2.3 -1.76 -2.3 c-0.94 0 -1.76 0.48 -1.76 2.7 l0 5.92 l-2.86 0 l0 -6.3 c0 -1 -0.9 -2.32 -1.96 -2.32 c-1.26 0 -2 1.56 -2 2.7 l0 5.92 l-3.22 0 l0 -0.18 l0.02 -11.42 l3.18 0 l0 0.54 c0.6 -0.38 1.26 -0.6 2.02 -0.6 c1.4 0 2.74 0.72 3.36 1.9 c0.62 -1.22 2.08 -1.9 3.46 -1.9 z M61.566 6.199999999999999 c0 0.94 0.76 1.78 1.82 1.78 c1.04 0 1.84 -0.84 1.84 -1.78 c0 -0.92 -0.8 -1.82 -1.84 -1.82 c-1.06 0 -1.82 0.9 -1.82 1.82 z M61.766000000000005 8.42 l0 11.58 l3.24 0 l0 -11.58 l-3.24 0 z M68.22749999999999 16.48 c0 2.8 3.54 3.52 5.7 3.52 c2.14 0 5.34 -0.7 5.34 -3.4 c0 -0.82 -0.24 -1.22 -0.72 -1.82 c-0.4 -0.52 -1 -0.9 -1.56 -1.18 c-0.42 -0.22 -0.88 -0.4 -1.34 -0.54 c-0.46 -0.16 -0.92 -0.28 -1.36 -0.44 c-0.24 -0.08 -0.54 -0.16 -0.86 -0.28 c-0.3 -0.1 -0.6 -0.2 -0.78 -0.3 c-0.1 -0.06 -0.2 -0.12 -0.28 -0.18 s-0.1 -0.12 -0.1 -0.18 c0 -0.16 0.16 -0.3 0.48 -0.42 c0.32 -0.1 0.68 -0.14 0.9 -0.14 c0.34 0 0.8 0.08 1.18 0.24 c0.38 0.18 0.62 0.42 0.62 0.74 l0 0.52 l3.64 -0.02 l0 -0.56 c0 -1.18 -0.64 -2.04 -1.6 -2.68 c-1.18 -0.76 -2.52 -1 -3.9 -1 c-2.16 0 -5.26 0.9 -5.26 3.54 c0 0.46 0.12 0.9 0.36 1.3 c0.2 0.32 0.46 0.68 0.78 0.94 c0.66 0.52 1.66 0.94 2.46 1.2 c0.42 0.14 0.88 0.24 1.3 0.4 c0.24 0.08 0.56 0.16 0.88 0.26 c0.32 0.12 0.6 0.22 0.82 0.32 c0.22 0.12 0.36 0.26 0.36 0.42 c0 0.18 -0.14 0.3 -0.5 0.4 c-0.32 0.08 -0.7 0.08 -0.92 0.08 c-0.5 0 -1.14 -0.06 -1.52 -0.28 c-0.12 -0.06 -0.24 -0.16 -0.34 -0.26 s-0.16 -0.18 -0.16 -0.26 l-0.02 -0.7 l-3.62 0 l0 0.08 c0.02 0.22 0.02 0.44 0.02 0.68 z M81.40899999999999 14.16 c0 3.14 2.66 5.84 6.04 5.84 c1.02 0 1.98 -0.22 2.86 -0.66 l0 0.66 l3.18 0 l-0.02 -11.56 l-3.24 0 l0 0.52 c-0.86 -0.42 -1.8 -0.62 -2.78 -0.62 c-3.38 0 -6.04 2.7 -6.04 5.82 z M89.449 16.14 c-0.54 0.52 -1.2 0.82 -2 0.82 c-1.58 0 -2.8 -1.32 -2.8 -2.8 c0 -1.46 1.22 -2.78 2.8 -2.78 c0.8 0 1.46 0.28 2 0.8 c0.34 0.34 0.78 1.06 0.78 1.48 l0 1.02 c0 0.42 -0.44 1.1 -0.78 1.46 z M101.89049999999999 15.620000000000001 c-0.66 0 -1.34 -0.26 -2.06 -0.78 c-0.22 -0.16 -0.38 -0.24 -0.48 -0.24 s-0.18 0.04 -0.2 0.14 s-0.04 0.26 -0.02 0.5 l-2.66 0 c0 -0.36 0.02 -0.72 0.08 -1.06 s0.16 -0.76 0.32 -1.22 s0.44 -0.84 0.82 -1.14 c0.38 -0.28 0.86 -0.42 1.44 -0.42 c0.66 0 1.34 0.26 2.06 0.78 c0.22 0.16 0.38 0.24 0.48 0.24 s0.18 -0.04 0.2 -0.14 s0.04 -0.26 0.02 -0.5 l2.66 0 c0 0.36 -0.02 0.72 -0.08 1.06 s-0.16 0.76 -0.32 1.22 s-0.44 0.84 -0.82 1.12 c-0.38 0.3 -0.86 0.44 -1.44 0.44 z"></path></g>
			</g>
		</svg>
	