<?xml version="1.0" encoding="utf-8"?>
<!-- Generator: Adobe Illustrator 27.5.0, SVG Export Plug-In . SVG Version: 6.00 Build 0)  -->
<svg version="1.1" xmlns="http://www.w3.org/2000/svg" xmlns:xlink="http://www.w3.org/1999/xlink" x="0px" y="0px"
	 viewBox="0 0 850 500" style="enable-background:new 0 0 850 500;" xml:space="preserve">
<g id="BACKGROUND">
	<rect style="fill:none;" width="850" height="500"/>
</g>
<g id="OBJECTS">
	<g>
		<g>
			<g>
				<path style="fill:#FF937E;" d="M192.396,458.521l3.077-49.094l24.097,1.025l-14.29,45.248c0.085-0.057,0.157-0.089,0.197-0.058
					l17.372,11.73c0.74,0.569,0.212,1.529-0.847,1.538c0,0-31.288-0.185-31.333-0.658
					C190.389,465.314,191.922,462.039,192.396,458.521z"/>
				<path style="fill:#45A2B9;" d="M190.088,464.787c1.063,0.354,7.44,0.709,11.869,0c1.647-0.59,6.414-7.643,6.909-7.263
					l6.124,4.312c-1.022,1.76-2.036,3.525-3.045,5.292c-0.173,0.302,11.472,0.516,11.3,0.818c0,0,0.148,0.833,0,1.092
					c-4.372-0.048-12.157-0.168-19.021-0.311c-7.057-0.106-13.532-0.261-13.552-0.476
					C190.389,465.314,189.684,464.653,190.088,464.787z"/>
			</g>
			<g>
				<path style="fill:#FF937E;" d="M87.219,425.635l25.208-38.953l18.146,15.889l-31.542,28.933c0.102,0.008,0.178,0.029,0.19,0.078
					l6.2,20.024c0.221,0.908-0.792,1.325-1.623,0.669c0,0-24.279-19.736-24.017-20.134
					C81.401,429.675,84.647,428.081,87.219,425.635z"/>
				<path style="fill:#45A2B9;" d="M81.496,429.076c0.607,0.942,5.357,5.211,9.254,7.432c1.653,0.571,9.787-1.943,9.934-1.337
					l2.074,7.197c-1.899,0.732-3.794,1.473-5.688,2.219c-0.324,0.128,8.622,7.586,8.298,7.714c0,0-0.406,0.742-0.684,0.852
					c-3.379-2.775-9.373-7.743-14.636-12.153c-5.436-4.502-10.387-8.677-10.268-8.858C81.401,429.675,81.265,428.717,81.496,429.076
					z"/>
			</g>
			<g>
				<path style="fill:#4EAF87;" d="M200.004,227.072c0,0,2.243,76.592-10.653,105.838c-12.896,29.246-58.223,74.466-58.223,74.466
					l-21.701-19.929c0,0,30.046-32.928,44.023-66.64c5.175-12.482,2.846-42.107-2.672-54.979
					c-7.133-16.639,1.889-39.26,7.739-42.459C167.738,218.327,200.004,227.072,200.004,227.072z"/>
				<path style="fill:none;stroke:#FFFFFF;stroke-width:0.5718;stroke-miterlimit:10;" d="M185.827,282.924
					c0,0-9.302,47.968-63.876,111.465"/>
			</g>
			<g>
				<g>
					<path style="fill:#5BC29C;" d="M196.643,227.534c57.208,91.729,42.695,75.647,29.254,186.042l-47.856,1.491
						c0,0,28.102-64.39,5.053-104.395s-46.064-46.528-29.109-89.54L196.643,227.534z"/>
				</g>
				<path style="fill:none;stroke:#FFFFFF;stroke-width:0.5718;stroke-miterlimit:10;" d="M173.039,224.477
					c0,0-1.474,9.166,0.736,18.48c2.21,9.314,38.696,47.307,40.89,75.44c2.194,28.133-2.688,94.728-2.688,94.728"/>
			</g>
		</g>
		<g>
			<g>
				<path style="fill:#FF937E;" d="M252.438,275.315c-0.46-1.055,0.211-2.215,1.269-2.188c2.349,0.059,5.904,4.07,7.67,0.325
					c1.509-3.201-14.571-8.568-14.571-8.568s-5.248-10.89-6.819-16.368c-5.624,3.903-13.468,0.501-18.609,5.16
					c2.417,2.461,10.708,18.548,10.709,18.553c0.159,1.752,8.94,25.604,11.973,23.98c0.86-0.46-2.065-8.373-1.218-8.079
					c0.847,0.294,5.074,11.606,6.877,10.083c1.802-1.523-3.998-11.798-2.614-11.807c1.384-0.009,5.934,10.889,8.145,9.695
					c2.011-1.086-8.611-18.047-1.929-9.012c6.681,9.035,9.219,7.098,6.277,1.211C257.56,284.223,253.818,278.482,252.438,275.315z"
					/>
				<path style="fill:#FFF8ED;" d="M203.92,153.441c-6.144-1.672-14.562,3.555-15.902,13.713c-0.281,2.126,8.74,48.108,10.625,52.38
					c8.289,22.467,18.458,45.142,20.19,47.673c3.348-0.961,22.454-8.202,27.086-9.268c-0.364-8.482-13.168-45.914-17.174-52.971
					C228.726,198.581,215.851,157.598,203.92,153.441z"/>
			</g>
			<g>
				<path style="fill:#45A2B9;" d="M220.434,96.98c1.641,5.552-12.134,14.519-30.769,20.028
					c-18.635,5.509-35.072,5.474-36.713-0.078c-1.641-5.552,12.134-14.519,30.769-20.028
					C202.356,91.393,218.793,91.428,220.434,96.98z"/>
				<path style="fill:#FFC56B;" d="M180.266,94.499c0,0-10.684,5.827-18.375,31.399l25.571,1.346L180.266,94.499z"/>
				<g>
					<g>
						<path style="fill:#FF937E;" d="M180.861,118.423c-0.085,0.377-0.461,0.61-0.836,0.512c-1.564-0.41-5.409-0.953-6.974,3.012
							c-1.582,4.008,3.994,6.232,6.335,6.972c0.676,0.214,1.233,0.685,1.567,1.31c1.028,1.921-1.962,14.996-1.952,19.509
							c0.023,9.969,13.841,15.681,22.371,12.5c0,0-2.03-23.261,0.74-23.596c4.891-0.591,11.25-2.271,11.876-19
							c0.59-15.765-11.911-17.704-14.769-17.923C196.81,101.535,185.09,99.691,180.861,118.423z"/>
						<path style="fill:#000205;" d="M201.941,138.642c0,0-2.05,0.178-7.237-1.977c-2.042-0.848,1.694,3.589,4.358,3.589
							C201.725,140.254,201.941,138.642,201.941,138.642z"/>
					</g>
				</g>
				<g>
					<path style="fill:#FFC56B;" d="M213.15,111.956c0.343-7.208-1.902-10.421-4.601-11.74c-3.192-3.421-18.278-13.666-28.283-5.716
						c-5.093,4.046-6.912,8.301-6.992,12.112c-0.133,6.351,4.568,11.469,7.001,12.329c1.917,1.924,14.503-4.053,24.201-12.421
						C206.524,108.416,213.15,111.956,213.15,111.956z"/>
					<g>
						<g>
							<path style="fill:#FFC56B;" d="M176.637,117.211c2.72,1.843,5.523,3.442,8.923,3.009c2.532-0.322,4.947-1.52,7.224-2.613
								c5.472-2.626,9.122-7.086,12.088-12.267c0.434-0.758-0.736-1.441-1.17-0.684c-2.721,4.754-6.034,9.033-11.043,11.509
								c-1.988,0.982-4.097,2.052-6.274,2.543c-3.487,0.787-6.264-0.769-9.065-2.668
								C176.597,115.55,175.918,116.724,176.637,117.211L176.637,117.211z"/>
						</g>
					</g>
				</g>
				<g>
					<path style="fill:#EB755E;" d="M175.185,122.14c0,0,3.639-4.37,4.917,3.069"/>
					<path style="fill:#FFFFFF;" d="M210.576,127.292l-8.03-0.219c0,0,1.902,3.912,4.237,3.569
						C209.119,130.3,210.576,127.292,210.576,127.292z"/>
					<path style="fill:#EB755E;" d="M207.009,117.695l-0.444,7.815l2.113-0.137c0.39-0.026,0.61-0.459,0.401-0.789L207.009,117.695z
						"/>
					<path style="fill:#020C2B;" d="M201.348,117.153c-0.737,0.502,0.416-1.77,1.417-2.023c1.001-0.253,1.989,0.243,2.208,1.107
						C204.973,116.237,203.117,115.946,201.348,117.153z"/>
					<path style="fill:#020C2B;" d="M212.264,116.602c-1.674-0.731-3.184-0.367-3.184-0.367c0.148-0.879,1.093-1.453,2.111-1.282
						c0.382,0.064,0.808,0.41,1.15,0.793C212.342,115.745,212.607,116.72,212.264,116.602z"/>
					<path style="fill:#020C2B;" d="M204.04,121.743c0.023,0.718,0.325,1.291,0.673,1.28c0.348-0.011,0.612-0.603,0.588-1.321
						c-0.023-0.718-0.325-1.291-0.673-1.28C204.28,120.433,204.016,121.025,204.04,121.743z"/>
					<path style="fill:#020C2B;" d="M209.112,121.52c0.022,0.686,0.31,1.233,0.643,1.223c0.333-0.011,0.584-0.576,0.562-1.262
						c-0.022-0.686-0.31-1.233-0.643-1.222C209.341,120.269,209.089,120.834,209.112,121.52z"/>
					<path style="fill:#FF836B;" d="M192.003,126.183c-0.338,2.582,1.278,4.923,3.61,5.229c2.332,0.305,4.496-1.541,4.834-4.123
						c0.338-2.583-1.279-4.924-3.61-5.229C194.505,121.754,192.34,123.6,192.003,126.183z"/>
					<path style="fill:#FF836B;" d="M212.061,130.855c-1.013-0.987-1.395-2.422-1.184-4.036c0.254-1.937,1.343-3.528,2.952-4.039
						C213.829,122.78,212.841,128.771,212.061,130.855z"/>
				</g>
				<g>
					<g>
						<path style="fill:#025169;stroke:#025169;stroke-width:0.4308;stroke-miterlimit:10;" d="M217.908,120.385l-0.89,0.026
							c-0.482,0.014-0.883-0.365-0.897-0.847l-0.005-0.185c-0.014-0.482,0.365-0.883,0.847-0.897l0.89-0.026L217.908,120.385z"/>
						<path style="opacity:0.78;fill:#FFC56B;" d="M206.973,120.448c0.113,3.938-2.362,7.204-5.53,7.295
							c-3.167,0.091-5.827-3.027-5.94-6.965c-0.113-3.938,2.362-7.204,5.53-7.295C204.2,113.391,206.859,116.51,206.973,120.448z"/>
						<path style="fill:none;stroke:#025169;stroke-width:0.4308;stroke-miterlimit:10;" d="M218.178,119.969
							c0.11,3.839-1.848,7.01-4.375,7.083s-4.665-2.98-4.775-6.819c-0.11-3.839,1.848-7.01,4.375-7.083
							S218.068,116.13,218.178,119.969z"/>
						<path style="fill:none;stroke:#025169;stroke-width:0.4308;stroke-miterlimit:10;" d="M218.178,119.969
							c0.11,3.839-1.848,7.01-4.375,7.083s-4.665-2.98-4.775-6.819c-0.11-3.839,1.848-7.01,4.375-7.083
							S218.068,116.13,218.178,119.969z"/>
						<path style="opacity:0.78;fill:#FFC56B;" d="M218.178,119.969c0.11,3.839-1.848,7.01-4.375,7.083s-4.665-2.98-4.775-6.819
							c-0.11-3.839,1.848-7.01,4.375-7.083S218.068,116.13,218.178,119.969z"/>
						<path style="opacity:0.27;fill:#FFFFFF;" d="M201.757,113.52c-0.238-0.03-0.479-0.044-0.724-0.037
							c-2.323,0.067-4.272,1.842-5.102,4.337C197.93,116.464,199.859,115.014,201.757,113.52z"/>
						<path style="opacity:0.27;fill:#FFFFFF;" d="M205.197,115.523c-0.208-0.251-0.428-0.487-0.664-0.697
							c-2.894,2.323-5.849,4.565-8.991,6.551c0.035,0.368,0.1,0.723,0.178,1.071C198.905,120.176,202.058,117.859,205.197,115.523z"
							/>
						<path style="opacity:0.27;fill:#FFFFFF;" d="M197.911,126.371c0.993,0.896,2.219,1.41,3.532,1.372
							c3.167-0.091,5.643-3.357,5.53-7.295c-0.01-0.333-0.039-0.66-0.084-0.98C203.948,121.836,200.966,124.152,197.911,126.371z"/>
						<path style="opacity:0.27;fill:#FFFFFF;" d="M211.748,126.385c2.027-1.445,4.119-2.794,6.237-4.101
							c0.147-0.727,0.216-1.506,0.193-2.316c-0.039-1.34-0.328-2.579-0.791-3.628c-2.543,2.258-5.069,4.538-8.016,6.257
							C209.822,124.27,210.68,125.625,211.748,126.385z"/>
						<path style="opacity:0.27;fill:#FFFFFF;" d="M214.551,113.335c-0.369-0.132-0.754-0.197-1.148-0.186
							c-1.946,0.056-3.555,1.951-4.141,4.573C211.015,116.248,212.781,114.789,214.551,113.335z"/>
						<path style="fill:none;stroke:#1E2046;stroke-width:0.4308;stroke-miterlimit:10;" d="M218.178,119.969
							c0.11,3.839-1.848,7.01-4.375,7.083s-4.665-2.98-4.775-6.819c-0.11-3.839,1.848-7.01,4.375-7.083
							S218.068,116.13,218.178,119.969z"/>
						<path style="fill:none;stroke:#1E2046;stroke-width:0.4308;stroke-miterlimit:10;" d="M206.972,121.227
							c0,0,0.986-3.149,2.082-0.075"/>
						
							<line style="fill:none;stroke:#1E2046;stroke-width:0.4308;stroke-miterlimit:10;" x1="195.378" y1="120.067" x2="181.632" y2="119.821"/>
						<path style="fill:none;stroke:#1E2046;stroke-width:0.4884;stroke-miterlimit:10;" d="M206.973,120.448
							c0.113,3.938-2.362,7.204-5.53,7.295c-3.167,0.091-5.827-3.027-5.94-6.965c-0.113-3.938,2.362-7.204,5.53-7.295
							C204.2,113.391,206.859,116.51,206.973,120.448z"/>
					</g>
				</g>
				<g>
					<path style="fill:#45A2B9;" d="M159.321,113.661c0,0,18.802-14.101,47.004-16.713c12.84-1.189,2.275-0.863-5.981-9.119
						C190.731,78.216,165.958,90.582,159.321,113.661z"/>
					<path style="fill:#1E2046;" d="M206.449,92.498c-1.922-1.141-4.082-2.646-6.104-4.669c-0.218-0.218-0.453-0.413-0.686-0.608
						l-13.157,8.684C186.501,95.904,197.311,93.094,206.449,92.498z"/>
				</g>
			</g>
			<path style="fill:#FFF8ED;" d="M201.113,153.328c-0.433-6.552,9.653,32.573,9.34,41.995c-0.243,7.319-0.257,40.421-0.212,40.925
				c0,0-23.43-1.476-63.433-11.769c2.791-9.607,11.321-60.822,18.31-71.159c0,0,10.489-3.809,13.885-3.197
				C179.003,150.124,201.508,166.016,201.113,153.328z"/>
			<path style="fill:#F4E9D9;" d="M185.342,197.454c-4.64-9.997-8.841-20.182-13.394-30.215c-2.12-4.672-4.447-9.309-6.364-14.085
				c-0.298,0.105-0.466,0.166-0.466,0.166c-6.989,10.337-15.519,61.552-18.31,71.159c28.4,7.307,48.434,10.169,57.674,11.215
				C197.715,223.148,191.346,210.391,185.342,197.454z"/>
			<g>
				<g>
					
						<line style="fill:none;stroke:#3F468E;stroke-width:1.1276;stroke-miterlimit:10;" x1="153.175" y1="286.841" x2="129.266" y2="362.416"/>
					<path style="fill:#3F468E;stroke:#3F468E;stroke-width:0.9133;stroke-miterlimit:10;" d="M140.893,308.605L140.893,308.605
						c2.666,0.843,5.51-0.634,6.354-3.3l5.85-18.491c0.843-2.666-0.634-5.51-3.3-6.354l0,0c-2.666-0.843-5.51,0.634-6.354,3.3
						l-5.85,18.491C136.75,304.917,138.228,307.762,140.893,308.605z"/>
				</g>
				<path style="fill:#FF937E;" d="M234.25,256.826c-0.007,0.079-0.016,0.165-0.022,0.241
					C234.228,257.067,234.291,256.973,234.25,256.826z"/>
				<path style="fill:#FF616B;" d="M83.771,460.437l-22.485-7.113c-7.898-2.498-12.274-10.926-9.776-18.824l21.35-67.486
					c6.26-19.787,27.375-30.754,47.163-24.494l15.257,4.827l-32.684,103.315C100.097,458.559,91.669,462.936,83.771,460.437z"/>
				<path style="fill:#1E2046;" d="M61.52,456.938c0.937-2.962-0.704-6.122-3.666-7.059c-2.962-0.937-6.122,0.704-7.059,3.666
					s0.704,6.122,3.666,7.059C57.423,461.541,60.583,459.899,61.52,456.938z"/>
				<path style="fill:#1E2046;" d="M93.696,467.117c0.937-2.962-0.704-6.122-3.666-7.059c-2.962-0.937-6.122,0.704-7.059,3.666
					c-0.937,2.962,0.704,6.122,3.666,7.059C89.599,471.72,92.759,470.079,93.696,467.117z"/>
				<g>
					<path style="fill:#FFF8ED;" d="M87.409,442.544l-5.729-1.477c-2.118-0.546-3.392-2.705-2.846-4.823l1.743-6.76
						c0.546-2.117,2.705-3.392,4.823-2.846l5.729,1.477c2.118,0.546,3.392,2.705,2.846,4.822l-1.743,6.76
						C91.686,441.816,89.526,443.09,87.409,442.544z"/>
					<path style="fill:#FFC56B;" d="M78.895,415.819l-5.729-1.477c-2.118-0.546-3.392-2.705-2.846-4.822l1.743-6.76
						c0.546-2.117,2.705-3.392,4.822-2.846l5.729,1.477c2.118,0.546,3.392,2.705,2.846,4.823l-1.743,6.76
						C83.171,415.091,81.012,416.365,78.895,415.819z"/>
					<path style="fill:#1E2046;" d="M113.009,392.5l-19.724-5.084c-1.18-0.304-1.89-1.507-1.586-2.687l3.225-12.512
						c0.304-1.18,1.507-1.89,2.687-1.586l19.724,5.084c1.18,0.304,1.89,1.507,1.586,2.687l-3.225,12.512
						C115.392,392.095,114.189,392.805,113.009,392.5z"/>
				</g>
			</g>
			<path style="fill:#FF937E;" d="M150.906,284.064c0.171-1.138,1.355-1.764,2.237-1.18c1.959,1.298-1.947,8.195,1.538,5.96
				c2.979-1.91-0.854-16.108-0.854-16.108s1.337-12.015,2.916-17.49c-6.838,0.32-11.678-6.729-18.508-5.512
				c0.741,3.369-0.779,21.403-0.781,21.408c-0.796,1.569-2.324,26.535,1.108,26.77c0.973,0.067-1.003-8.284-0.441-7.585
				c0.561,0.699,1.694,13.045,4.03,12.712c2.336-0.333,1.767-11.357,0.497-11.908c-0.176-0.077-0.756,12.378,1.752,12.54
				c2.28,0.148,0.912-11.86,0.956-11.559c1.538,10.575,3.852,16.452,4.486,9.902C150.282,297.475,150.393,287.48,150.906,284.064z"
				/>
			<path style="fill:#FFF8ED;" d="M176.681,155.533c-4.318-4.679-14.226-4.722-20.757,3.173
				c-1.367,1.653-18.147,45.404-18.818,50.024c-4.909,23.439-8.337,48.052-8.214,51.116c3.347,0.964,23.381,4.977,27.872,6.534
				c4.197-7.38,13.229-45.897,13.583-54.003C173.723,206.955,184.582,165.392,176.681,155.533z"/>
			<g>
				<defs>
					<path id="SVGID_1_" d="M218.833,267.208c3.348-0.961,22.454-8.202,27.086-9.267c-0.364-8.482-13.168-45.914-17.174-52.971
						c-0.019-6.388-12.894-47.371-24.825-51.528c-0.769-0.209-1.573-0.31-2.395-0.307c-0.295-0.692-0.452-0.744-0.42,0.028
						c-1.184,0.054-2.396,0.321-3.582,0.789c-4.528,1.785-9.593,1.665-13.786-0.807c-2.764-1.63-4.735-3.02-4.735-3.02
						c-2.27-0.409-7.698,1.154-11.055,2.238c-4.059,0.18-8.524,2.114-12.023,6.344c-1.367,1.653-18.147,45.404-18.818,50.024
						c-4.909,23.439-8.337,48.052-8.214,51.116c3.347,0.964,23.381,4.977,27.872,6.534c2.732-4.805,7.513-22.807,10.616-37.023
						c17.96,3.883,30.817,5.638,37.526,6.385C211.398,251.878,217.525,265.295,218.833,267.208z"/>
				</defs>
				<clipPath id="SVGID_00000076593924498944942980000013653851383420148364_">
					<use xlink:href="#SVGID_1_"  style="overflow:visible;"/>
				</clipPath>
				<g style="clip-path:url(#SVGID_00000076593924498944942980000013653851383420148364_);">
					<g>
						<g>
							<path style="fill:#1E2046;" d="M143.063,167.04c8.843,7.151,13.489,19.199,11.24,30.424
								c-0.623,3.111-1.818,6.097-3.852,8.559c-1.968,2.382-4.501,4.232-7.116,5.843c-5.235,3.226-12.108,6.16-18.358,4.451
								c-3.838-1.05-5.298-4.644-6.018-8.232c-0.756-3.768-0.445-7.654,0.789-11.284c0.18-0.53-0.657-0.757-0.836-0.231
								c-1.117,3.287-1.492,6.777-1.039,10.223c0.39,2.965,1.27,6.514,3.569,8.614c2.273,2.075,5.67,2.364,8.602,2.158
								c3.441-0.241,6.765-1.325,9.857-2.818c5.769-2.784,11.565-6.817,14.035-12.954c2.328-5.784,2.263-12.529,0.651-18.486
								c-1.784-6.592-5.593-12.583-10.909-16.882C143.246,166.079,142.628,166.688,143.063,167.04L143.063,167.04z"/>
						</g>
					</g>
					<g>
						<g>
							<path style="fill:#1E2046;" d="M179.837,162.406c-5.357-2.539-10.236,1.885-13.557,5.637
								c-1.718,1.942-2.281,4.039-0.872,6.373c1.121,1.859,2.901,3.201,4.486,4.635c1.767,1.599,3.555,3.544,3.119,6.124
								c-0.459,2.719-2.783,4.751-3.993,7.135c-2.325,4.58-2.262,10.304,0.28,14.786c2.755,4.858,8.174,7.863,13.723,7.851
								c0.558-0.001,0.559-0.868,0-0.867c-4.933,0.011-9.756-2.482-12.484-6.622c-2.836-4.305-3.106-10.123-0.77-14.709
								c1.751-3.437,5.624-6.684,3.588-10.885c-1.744-3.598-6.378-5.097-7.711-8.934c-0.649-1.868,0.301-3.229,1.507-4.559
								c0.929-1.025,1.879-2.043,2.922-2.953c2.523-2.202,6.049-3.813,9.323-2.261C179.901,163.393,180.341,162.645,179.837,162.406
								L179.837,162.406z"/>
						</g>
					</g>
					<g>
						<g>
							<path style="fill:#1E2046;" d="M150.169,160.436c4.679,2.081,10.464,4.219,14.934,0.509
								c4.289-3.559,4.652-9.503,4.834-14.655c0.02-0.558-0.848-0.557-0.867,0c-0.168,4.771-0.426,10.181-4.159,13.671
								c-4.124,3.857-9.84,1.711-14.304-0.274C150.102,159.462,149.66,160.209,150.169,160.436L150.169,160.436z"/>
						</g>
					</g>
					<g>
						<g>
							<path style="fill:#1E2046;" d="M127.787,225.93c11.293-2.221,22.657,3.721,27.348,14.198c0.125-0.218,0.25-0.435,0.374-0.653
								c-2.778,0.004-5.556-0.112-8.322-0.382c-2.701-0.264-5.254-0.8-7.29-2.718c-1.811-1.707-3.199-3.882-4.63-5.903
								c-1.608-2.271-3.171-4.572-4.735-6.873c-0.312-0.459-1.064-0.026-0.749,0.438c1.698,2.498,3.396,4.997,5.149,7.456
								c1.489,2.088,2.953,4.38,4.952,6.025c1.8,1.48,3.979,2.052,6.252,2.329c3.104,0.378,6.247,0.5,9.371,0.495
								c0.355-0.001,0.505-0.362,0.374-0.653c-4.857-10.846-16.68-16.887-28.328-14.596
								C127.009,225.202,127.24,226.038,127.787,225.93L127.787,225.93z"/>
						</g>
					</g>
					<g>
						<g>
							<path style="fill:#1E2046;" d="M175.35,233.159c-4.568,2.678-9.137,5.357-13.706,8.035c-3.76,2.204-8.262,4.183-10.648,8.02
								c-4.861,7.82-0.629,17.096,3.035,24.408c0.25,0.499,0.998,0.06,0.749-0.438c-3.589-7.162-7.983-16.675-2.615-24.162
								c1.278-1.782,3.086-3.034,4.94-4.156c2.071-1.253,4.174-2.453,6.262-3.677c4.14-2.427,8.281-4.855,12.421-7.282
								C176.269,233.626,175.833,232.876,175.35,233.159L175.35,233.159z"/>
						</g>
					</g>
					<g>
						<g>
							<path style="fill:#1E2046;" d="M174.92,148.21c-0.189,2.217,0.766,4.183,1.847,6.057c1.037,1.799,2.104,3.592,3.311,5.283
								c2.235,3.131,5.046,5.824,8.767,7.044c7.572,2.482,15.701-1.036,20.648-6.882c2.904-3.432,4.891-7.525,6.237-11.793
								c0.168-0.533-0.669-0.762-0.836-0.23c-2.177,6.905-6.306,13.752-13.047,16.99c-3.356,1.612-7.262,2.252-10.936,1.553
								c-3.715-0.706-6.728-2.882-9.074-5.784c-1.357-1.678-2.492-3.525-3.592-5.378c-1.254-2.113-2.677-4.3-2.459-6.861
								C175.835,147.654,174.967,147.657,174.92,148.21L174.92,148.21z"/>
						</g>
					</g>
					<g>
						<g>
							<path style="fill:#1E2046;" d="M223.425,165.521c-8.089,0.637-16.078,4.001-21.953,9.656c-0.426,0.41-1.001,0.93-0.819,1.6
								c0.194,0.717,1.187,1.021,1.775,1.274c1.782,0.767,3.705,1.182,5.643,1.256c3.825,0.146,7.628-1.105,10.569-3.562
								c3.191-2.666,5.193-6.537,5.62-10.66c0.057-0.555-0.81-0.551-0.867,0c-0.72,6.95-6.298,12.622-13.274,13.297
								c-1.753,0.17-3.538,0.031-5.243-0.408c-0.866-0.222-1.709-0.524-2.519-0.902c-1.38-0.643,0.169-1.705,0.83-2.276
								c2.59-2.238,5.526-4.082,8.651-5.475c3.663-1.632,7.591-2.619,11.587-2.934C223.978,166.345,223.983,165.478,223.425,165.521
								L223.425,165.521z"/>
						</g>
					</g>
					<g>
						<g>
							<path style="fill:#1E2046;" d="M230.329,189.3c-5.327,0.456-10.123,4.065-11.71,9.231c-0.854,2.781-0.777,5.875,0.234,8.605
								c0.835,2.254,2.459,4.993,5.097,5.321c3.022,0.375,5.049-2.858,8.006-2.647c4.419,0.316,1.062,7.367,0.203,9.406
								c-1.18,2.801-2.203,5.592-2.303,8.662c-0.091,2.804,0.497,5.67,1.89,8.121c2.848,5.01,9.329,7.657,14.684,5.096
								c0.503-0.241,0.064-0.989-0.438-0.749c-5.079,2.43-11.161-0.358-13.684-5.125c-1.311-2.478-1.76-5.354-1.541-8.131
								c0.247-3.122,1.529-5.915,2.702-8.773c0.862-2.1,2.078-4.774,1.387-7.095c-0.598-2.008-2.587-2.587-4.463-2.083
								c-2.823,0.759-5.445,4.017-8.337,1.492c-2.142-1.87-3.099-5.124-3.153-7.877c-0.126-6.527,4.945-12.031,11.425-12.585
								C230.881,190.12,230.886,189.252,230.329,189.3L230.329,189.3z"/>
						</g>
					</g>
					<g>
						<g>
							<path style="fill:#1E2046;" d="M186.717,235.12c-3.389-2.069-5.038-6.481-3.436-10.195c0.78-1.808,2.214-3.314,3.971-4.203
								c1.782-0.902,3.657-0.711,5.545-1.123c3.7-0.809,3.575-4.492,3.283-7.528c-0.402-4.188,0.543-8.375,3.058-11.8
								c2.877-3.919,7.447-6.327,12.278-6.649c0.554-0.037,0.558-0.904,0-0.867c-8.662,0.576-15.731,7.466-16.289,16.186
								c-0.135,2.115,0.384,4.202,0.246,6.31c-0.077,1.175-0.449,2.353-1.495,3.018c-1.096,0.697-2.511,0.631-3.754,0.761
								c-3.595,0.378-6.767,2.798-7.915,6.268c-1.314,3.973,0.561,8.429,4.07,10.571C186.757,236.16,187.193,235.411,186.717,235.12
								L186.717,235.12z"/>
						</g>
					</g>
					<g>
						<g>
							<path style="fill:#1E2046;" d="M214.386,258.401c-2.264-8.978-0.552-18.647,4.63-26.316
								c-0.198,0.052-0.396,0.104-0.593,0.156c4.671,2.778,4.071,8.898,2.324,13.229c-1.033,2.56-2.372,5.005-3.604,7.471
								c-1.304,2.609-2.607,5.218-3.911,7.828c-0.249,0.498,0.499,0.938,0.749,0.438c1.485-2.972,2.97-5.943,4.454-8.915
								c1.35-2.702,2.84-5.392,3.763-8.281c1.395-4.37,0.993-9.943-3.337-12.518c-0.211-0.125-0.463-0.038-0.593,0.156
								c-5.309,7.857-7.035,17.794-4.717,26.985C213.686,259.173,214.523,258.943,214.386,258.401L214.386,258.401z"/>
						</g>
					</g>
				</g>
			</g>
		</g>
	</g>
	<g>
		<g>
			<path style="fill:#A94846;" d="M338.994,428c-0.237,0.71-11.589,13.954-11.589,13.954l41.625,20.103l-15.846-22.231l7.568-7.805
				L338.994,428z"/>
			<path style="fill:#5BC29C;" d="M324.094,439.826l-2.979,5.3l51.281,22.306c0.52,0.221,1.168-0.135,1.449-0.796l1.413-3.322
				c0.219-0.515,0.154-1.081-0.16-1.407l-19.305-20.79l-16.561,5.094L324.094,439.826z"/>
			<path style="fill:#A94846;" d="M448.21,444.605c0.036,0.747-2.763,20.19-2.763,20.19l46.079,3.666l-22.821-14.985l-2.621-13.002
				L448.21,444.605z"/>
			<path style="fill:#5BC29C;" d="M441.59,464.01l-0.858,6.019l55.878,2.223c0.564,0.018,1.039-0.549,1.062-1.266l0.114-3.608
				c0.018-0.559-0.248-1.064-0.659-1.254l-25.523-12.388l-13.592,10.745L441.59,464.01z"/>
			<g>
				<path style="fill:#FFC56B;" d="M467.888,243.914c0,0,6.241,72.943,6.828,93.096c0.586,20.153-3.554,110.001-3.554,110.001
					l-25.504-0.563c0,0-18.597-149.718-43.814-198.323L467.888,243.914z"/>
				<g>
					<path style="fill:none;stroke:#FFFFFF;stroke-width:0.681;stroke-miterlimit:10;" d="M436.478,248.083
						c0,0,17.76,84.267,17.76,97.205s2.621,101.848,2.621,101.848"/>
					
						<line style="fill:none;stroke:#FFFFFF;stroke-width:0.681;stroke-miterlimit:10;" x1="444.948" y1="437.934" x2="471.754" y2="438.013"/>
				</g>
			</g>
			<g>
				<path style="fill:#FFC56B;" d="M470.308,249.801c0,0-26.86,56.426-50.211,95.414c-18.87,31.506-58.48,91.094-58.48,91.094
					l-24.626-8.356l41.913-90.515c2.404-4.79,4.346-9.797,5.805-14.958c5.507-19.479,9.91-60.28,13.656-86.226L470.308,249.801z"/>
				<g>
					<path style="fill:none;stroke:#FFFFFF;stroke-width:0.681;stroke-miterlimit:10;" d="M420.63,240.306
						c0,0-9.858,78.49-18.421,89.19c-8.563,10.7-58.712,102.017-58.712,102.017"/>
					
						<line style="fill:none;stroke:#FFFFFF;stroke-width:0.681;stroke-miterlimit:10;" x1="338.042" y1="421.311" x2="366.605" y2="427.437"/>
					
						<line style="fill:none;stroke:#FFFFFF;stroke-width:0.681;stroke-miterlimit:10;" x1="444.686" y1="244.77" x2="417.589" y2="267.447"/>
				</g>
			</g>
		</g>
		<g>
			<g>
				<path style="fill:#A94846;" d="M476.749,265.289c-4.063-21.906-19.818-42.603-19.519-62.372
					c0.3-19.769-11.424-29.506-6.591-46.878c10.573,1.455,21.121,1.953,31.683,3.121c-4.47,14.361-2.493,21.803-3.076,36.829
					c-0.583,15.027,14.431,50.787,18.14,60.068c3.709,9.281,11.283,13.376,9.422,16.207c-0.542,0.825-4.214-1.464-6.604-3.906
					c-0.66-0.674-1.798-0.156-1.72,0.784c0.264,3.205,0.93,7.509,1.942,8.671c6.97,8.006,8.038,13.698,5.555,12.81
					c-2.483-0.888-11.286-10.855-11.286-10.855s7.229,11.887,6.28,12.486c-0.949,0.598-9.914-9.73-9.914-9.73s7.366,12,5.094,11.973
					c-2.271-0.027-6.81-5.123-6.81-5.123s1.556,4.257,0.234,3.632C488.258,292.38,476.749,265.289,476.749,265.289z"/>
			</g>
			<path style="fill:#FF937E;" d="M490.121,178.488c-6.557-20.027-21.079-63.36-39.203-57.186
				c-15.609,5.317-15.492,35.335-7.313,66.664C455.506,186.633,478.409,180.983,490.121,178.488z"/>
			<path style="fill:#FF937E;" d="M396.938,115.578c0,0-10.343,9.556-12.396,35.934c-2.053,26.377,1.128,124.727,1.128,124.727
				h91.882l-8.988-122.143c-0.331-6.725-2.453-13.237-6.144-18.868c-3.409-5.2-5.744-14.407-8.011-14.684l-39.969-9.46
				L396.938,115.578z"/>
			<path style="opacity:0.5;fill:#FF937E;" d="M427.399,214.172c-15.737-28.318-27.014-58.241-36.654-88.908
				c-2.614,5.721-5.268,14.235-6.203,26.248c-2.053,26.377,1.128,124.727,1.128,124.727h83.989
				C453.92,256.734,439.594,236.116,427.399,214.172z"/>
			<g>
				<path style="fill:#3F468E;" d="M422.485,387.62h-82.787c-12.491,0-22.616-10.126-22.616-22.616v-58.479
					c0-12.491,10.126-22.616,22.616-22.616h82.787c12.491,0,22.616,10.126,22.616,22.616v58.479
					C445.102,377.494,434.976,387.62,422.485,387.62z"/>
				<path style="fill:none;stroke:#3F468E;stroke-width:7.3096;stroke-miterlimit:10;" d="M391.667,304.961h-21.15
					c-5.566,0-10.078-4.512-10.078-10.078v-13.307c0-5.566,4.512-10.078,10.078-10.078h21.15c5.566,0,10.078,4.512,10.078,10.078
					v13.307C401.745,300.449,397.233,304.961,391.667,304.961z"/>
				<g>
					<g>
						<rect x="344.78" y="283.908" style="fill:#FF937E;" width="11.585" height="103.712"/>
						
							<rect x="343.01" y="330.902" style="fill:none;stroke:#FFF8ED;stroke-width:3.6548;stroke-miterlimit:10;" width="15.125" height="16.745"/>
					</g>
					<g>
						<rect x="405.819" y="283.908" style="fill:#FF937E;" width="11.585" height="103.712"/>
						
							<rect x="404.049" y="330.902" style="fill:none;stroke:#FFF8ED;stroke-width:3.6548;stroke-miterlimit:10;" width="15.125" height="16.745"/>
					</g>
				</g>
			</g>
			<g>
				<path style="fill:#A94846;" d="M387.842,268.258c-0.009-0.932,1.165-1.374,1.766-0.662c0.442,0.524,4.588,0.613,5.763,0.764
					c-1.871-2.857-5.76-7.203-7.675-13.229c-3.027-9.525-8.555-38.249-8.555-53.287c0-2.129,13.834-30.751,19.334-44.75
					c-10.45-1.931-20.934-3.192-31.374-5.41c-6.08,16.976-17.051,42.71-16.696,50.16c0.269,5.644,9.578,36.363,15.445,56.851
					c1.01,3.526,1.621,7.15,2.832,10.612c2.896,8.276,7.673,21.615,8.549,22.11c1.273,0.719,0.03-3.639,0.03-3.639
					s4.157,5.411,6.421,5.603c2.264,0.191-4.213-12.311-4.213-12.311s8.192,10.951,9.182,10.423
					c0.99-0.528-5.358-12.908-5.358-12.908s8.057,10.578,10.469,11.644c2.412,1.066,1.759-4.689-4.612-13.178
					C388.225,275.817,387.873,271.473,387.842,268.258z"/>
			</g>
			<path style="fill:#FF937E;" d="M392.276,181.777c8.104-19.453,17.803-39.616,17.803-39.616s11.005-18.721-6.755-25.873
				c-15.296-6.16-35.888,19.173-50.139,48.247C363.07,171.293,381.774,176.023,392.276,181.777z"/>
			<g>
				<path style="fill:#A94846;" d="M421.863,93.588l-7.069,18.679l18.623,10.41c3.234,2.681,8.136,0.451,8.239-3.749l0,0
					l-1.466-14.819l-15.248-13.485c0,0-2.346,1.63-2.639,2.223C422.009,93.439,421.863,93.588,421.863,93.588z"/>
				<path style="fill:#1C244A;" d="M424.942,90.624l15.248,13.485l0.265,2.009c0,0-13.03,3.082-13.511-8.095"/>
			</g>
			<g>
				<path style="fill:#BB5B4D;" d="M418.602,85.451"/>
				<path style="fill:#1E2046;" d="M419.37,85.141c0,0,2.47,0.184,4.229,2.555l5.743-18.143c0,0,5.569-3.972,8.501-1.749
					c2.932,2.223,5.431,3.572,7.337,2.831c1.906-0.741,3.512-3.868,3.512-3.868s6.802-4.637,2.383-8.52c0,0,3.08-4.687-2.544-6.695
					c-5.624-2.008-6.963,0.134-7.9,2.276c0,0-6.427-7.499-10.846-0.937c0,0-11.326,1.67-11.562,10.421
					C418.078,68.703,419.37,85.141,419.37,85.141"/>
				<path style="opacity:0.85;fill:#A94846;" d="M418.313,68.329c0.282,6.952,1.057,16.812,1.057,16.812s2.47,0.184,4.229,2.555
					l4.488-14.178C425.099,71.489,421.773,69.807,418.313,68.329z"/>
				<path style="fill:#A94846;" d="M423.46,85.627c-0.183,0.474-0.782,0.613-1.147,0.262c-1.241-1.19-3.712-2.823-4.599,1.918
					c-1.204,6.439,5.672,5.331,6.221,6.198c1.112,1.758,4.676,7.663,9.99,9.955c3.239,1.397,8.788,1.927,12.325-1.391
					c3.537-3.318,4.366-1.355,2.882-36.826c0,0-3.089-1.323-5.419-0.536c-2.33,0.788-1.473,6.026-7.247,1.285
					c-1.726-1.417-6.332-2.131-8.885,5.192C426.407,75.05,424.541,82.836,423.46,85.627z"/>
				<path style="opacity:0.45;fill:#1E2046;" d="M446.604,90.272c-5.247,0.364-11.488,2.19-16.604,0.586
					c-3.061-0.96-4.179-5.701-5.687-7.977c-0.081,0.1-1.17,3.091-1.283,3.136c0.322,2.699,0.642,5.398,0.971,8.096
					c1.177,1.869,4.703,7.597,9.922,9.848c3.239,1.397,8.788,1.927,12.325-1.391c2.301-2.159,3.666-2.779,3.607-12.712
					C448.817,89.942,447.644,90.2,446.604,90.272z"/>
				<g>
					<path style="fill:#FFFFFF;" d="M449.011,91.268c0,0-1.816,0.246-7.346,0.559c0,0,2.767,4.367,4.82,3.649
						C448.54,94.757,449.011,91.268,449.011,91.268z"/>
					<path style="fill:#753231;" d="M418.745,87.328l3.632,2.675C422.377,90.003,421.023,83.533,418.745,87.328z"/>
					<path style="fill:#1C244A;" d="M444.752,83.746c0,0.775-0.314,1.403-0.701,1.403c-0.388,0-0.702-0.628-0.702-1.403
						c0-0.775,0.314-1.403,0.702-1.403C444.438,82.343,444.752,82.971,444.752,83.746z"/>
					<path style="fill:#1C244A;" d="M449.318,83.059c0,0.775-0.314,1.403-0.702,1.403c-0.387,0-0.701-0.628-0.701-1.403
						c0-0.775,0.314-1.403,0.701-1.403C449.004,81.657,449.318,82.285,449.318,83.059z"/>
					<path style="fill:#1C244A;" d="M438.852,77.7c-1.04,0.709,0.587-2.499,2-2.856c1.413-0.357,2.808,0.342,3.117,1.563
						C443.969,76.406,441.35,75.996,438.852,77.7z"/>
					<path style="fill:#1C244A;" d="M449.534,77.359c-1.49-0.189-2.56,0.069-2.56,0.069c0.194-1.155,1.292-1.965,2.586-1.997"/>
					<path style="fill:#753231;" d="M447.169,83.019l2.138,5.943c0.035,0.097-0.028,0.202-0.125,0.209l-2.524,0.187
						c-0.087,0.007-0.16-0.071-0.155-0.164l0.386-6.131C446.901,82.899,447.114,82.865,447.169,83.019z"/>
				</g>
			</g>
			<g>
				<g>
					<g>
						<path style="fill:#FFF8ED;" d="M373.31,129.429c3.727,6.812,7.453,13.623,11.18,20.435c0.135,0.248,0.563,0.274,0.691,0
							c1.814-3.891,4.263-7.402,7.295-10.443c-0.223-0.059-0.446-0.118-0.669-0.176c1.512,4.146,1.779,8.567,0.75,12.861
							c-0.032,0.134-0.004,0.293,0.103,0.389c14.084,12.688,29.802,23.501,46.693,32.106c0.292,0.149,0.565-0.041,0.602-0.345
							c2.034-16.701-6.333-32.276-14.168-46.384c-0.161-0.289-0.518-0.225-0.691,0c-2.395,3.11-5.322,5.728-8.665,7.783
							c0.201,0.115,0.401,0.23,0.602,0.346c0.322-4.63,1.069-9.204,2.232-13.697c0.049-0.188-0.037-0.343-0.184-0.452
							c-3.494-2.591-6.988-5.183-10.483-7.774c-0.103-0.076-0.301-0.076-0.404,0c-2.211,1.637-4.422,3.274-6.633,4.911
							c0.182,0.182,0.365,0.365,0.547,0.547c3.235-5.304,0.176-13.005-5.809-14.656c-0.497-0.137-0.709,0.634-0.213,0.771
							c5.497,1.517,8.298,8.616,5.331,13.48c-0.197,0.323,0.216,0.793,0.547,0.547c1.431-1.059,2.861-2.118,4.292-3.178
							c0.448-0.332,1.413-1.368,1.951-1.445c0.688-0.098,1.592,0.902,2.122,1.295c2.783,2.064,5.565,4.127,8.347,6.191
							c-0.061-0.151-0.123-0.301-0.184-0.452c-1.181,4.562-1.934,9.209-2.261,13.909c-0.021,0.304,0.355,0.497,0.602,0.345
							c3.468-2.131,6.469-4.846,8.952-8.07c-0.23,0-0.461,0-0.691,0c7.774,13.998,16.077,29.411,14.059,45.981
							c0.201-0.115,0.401-0.23,0.602-0.345c-16.293-8.301-31.523-18.648-45.2-30.79c-0.495-0.439-1.092-0.762-1.078-1.45
							c0.011-0.522,0.217-1.106,0.291-1.632c0.174-1.245,0.249-2.5,0.215-3.756c-0.068-2.482-0.556-4.92-1.406-7.25
							c-0.101-0.276-0.443-0.403-0.669-0.177c-3.078,3.086-5.578,6.653-7.42,10.605c0.23,0,0.461,0,0.691,0
							c-3.727-6.812-7.453-13.623-11.18-20.435C373.754,128.574,373.063,128.977,373.31,129.429L373.31,129.429z"/>
					</g>
				</g>
				<g>
					<g>
						<path style="fill:#FFF8ED;" d="M460.779,124.411c-4.283,5.327-8.261,10.893-11.888,16.687
							c-0.629,1.005-1.888,2.384-1.785,3.667c0.077,0.96,0.906,1.361,1.705,1.664c3.532,1.341,7.138,2.513,10.702,3.768
							c-0.032-0.244-0.064-0.488-0.096-0.731c-3.191,1.848-6.798,2.592-10.461,2.181c-0.224-0.025-0.387,0.204-0.4,0.4
							c-0.582,9.054-1.032,18.958,4.185,26.869c0.121,0.183,0.35,0.254,0.547,0.144c10.803-6.071,19.693-15.248,25.412-26.242
							c0.237-0.456-0.453-0.861-0.691-0.404c-5.66,10.88-14.433,19.946-25.125,25.955c0.183,0.048,0.365,0.096,0.547,0.144
							c-5.138-7.791-4.648-17.549-4.076-26.465c-0.133,0.133-0.267,0.267-0.4,0.4c3.795,0.426,7.561-0.377,10.864-2.29
							c0.314-0.182,0.219-0.62-0.096-0.731c-2.869-1.01-5.739-2.021-8.608-3.031c-0.697-0.246-1.403-0.473-2.094-0.737
							c-1.383-0.529-0.856-1.861-0.296-2.776c0.767-1.252,1.55-2.494,2.349-3.725c3.178-4.899,6.61-9.628,10.268-14.179
							C461.664,124.579,461.102,124.009,460.779,124.411L460.779,124.411z"/>
					</g>
				</g>
				<g>
					<g>
						<path style="fill:#FFF8ED;" d="M473.956,232.216c-1.73-8.026-6.93-15.05-14.093-19.06c-0.213-0.119-0.534-0.02-0.588,0.239
							c-0.648,3.12-1.659,6.123-3.044,8.994c0.23,0,0.461,0,0.691,0c-2.044-3.727-3.296-7.789-3.691-12.023
							c-0.018-0.189-0.114-0.322-0.294-0.386c-10.479-3.694-21.366-6.094-32.425-7.166c-0.414-0.04-0.518,0.553-0.202,0.745
							c0.654,0.397,1.307,0.795,1.961,1.192c-0.061-0.151-0.123-0.301-0.184-0.452c-0.776,4.24-1.007,8.534-0.672,12.833
							c0.262-0.035,0.524-0.071,0.786-0.106c-1.104-3.214-2.207-6.428-3.311-9.643c-0.741-2.159-1.538-4.369-4.261-4.065
							c-1.415,0.158-2.798,0.735-4.147,1.161c-1.637,0.516-3.273,1.033-4.909,1.549c-3.351,1.057-6.702,2.114-10.053,3.172
							c-0.3,0.095-0.375,0.439-0.176,0.669c9.383,10.875,20.626,20.058,33.153,27.086c0.271,0.152,0.591-0.042,0.602-0.345
							c0.148-4.02,2.89-7.593,6.734-8.779c-0.164-0.164-0.328-0.328-0.492-0.492c-2.093,5.714,0.898,11.765,5.238,15.54
							c5.32,4.627,12.682,5.826,19.443,6.691c4.695,0.601,9.397,1.156,14.096,1.732c0.51,0.063,0.505-0.738,0-0.8
							c-4.772-0.585-9.548-1.143-14.316-1.76c-4.459-0.577-8.974-1.31-13.138-3.077c-6.762-2.871-13.415-10.296-10.551-18.113
							c0.105-0.287-0.216-0.577-0.492-0.492c-4.189,1.292-7.161,5.17-7.322,9.55c0.201-0.115,0.401-0.23,0.602-0.345
							c-12.472-6.997-23.649-16.134-32.991-26.961c-0.059,0.223-0.118,0.446-0.177,0.669c5.689-1.795,11.373-3.605,17.066-5.384
							c1.417-0.443,3.139-0.992,4.208,0.397c0.791,1.028,1.091,2.551,1.506,3.761c0.972,2.831,1.945,5.663,2.917,8.495
							c0.138,0.401,0.823,0.37,0.786-0.106c-0.329-4.226-0.12-8.45,0.644-12.62c0.033-0.179-0.023-0.354-0.184-0.452
							c-0.654-0.397-1.307-0.795-1.961-1.192c-0.067,0.249-0.135,0.497-0.202,0.745c10.986,1.065,21.803,3.468,32.212,7.138
							c-0.098-0.129-0.196-0.257-0.294-0.386c0.408,4.379,1.685,8.57,3.8,12.426c0.137,0.25,0.56,0.271,0.691,0
							c1.414-2.932,2.462-5.997,3.124-9.185c-0.196,0.08-0.392,0.159-0.588,0.239c6.996,3.916,12.036,10.746,13.725,18.582
							C473.292,232.932,474.064,232.719,473.956,232.216L473.956,232.216z"/>
					</g>
				</g>
			</g>
		</g>
		<g>
			<path style="fill:none;stroke:#753231;stroke-width:0.5334;stroke-linecap:round;stroke-miterlimit:10;" d="M377.262,287.776
				c0,0-2.201-5.403-3.442-10.015"/>
			
				<line style="fill:none;stroke:#753231;stroke-width:0.5334;stroke-linecap:round;stroke-miterlimit:10;" x1="377.545" y1="277.052" x2="379.47" y2="281.068"/>
		</g>
	</g>
	<g>
		<g>
			<g>
				<path style="fill:none;stroke:#5BC29C;stroke-width:1.0668;stroke-miterlimit:10;" d="M645.041,332.146h9.543
					c5.308,0,9.612,4.303,9.612,9.612v12.23h-28.767v-12.23C635.429,336.449,639.733,332.146,645.041,332.146z"/>
				<g>
					<path style="fill:#1E2046;" d="M677.156,460.997c0-2.368,1.919-4.287,4.287-4.287c2.368,0,4.287,1.919,4.287,4.287
						c0,2.368-1.92,4.287-4.287,4.287C679.075,465.285,677.156,463.365,677.156,460.997z"/>
					<path style="fill:#1E2046;" d="M614.628,460.997c0-2.368,1.919-4.287,4.287-4.287c2.368,0,4.287,1.919,4.287,4.287
						c0,2.368-1.919,4.287-4.287,4.287C616.547,465.285,614.628,463.365,614.628,460.997z"/>
				</g>
				<g>
					
						<rect x="631.967" y="260.172" transform="matrix(-1 -1.224647e-16 1.224647e-16 -1 1299.6254 608.9816)" style="fill:none;stroke:#3F468E;stroke-width:1.1725;stroke-miterlimit:10;" width="35.691" height="88.637"/>
					<path style="fill:#1E2046;" d="M631.429,265.197h37.033c2.057,0,3.725-1.667,3.725-3.725v-0.009
						c0-2.057-1.668-3.725-3.725-3.725h-37.033c-2.057,0-3.725,1.668-3.725,3.725v0.009
						C627.705,263.529,629.372,265.197,631.429,265.197z"/>
				</g>
				<path style="fill:#3F468E;" d="M631.349,461.064h38.525c11.281,0,20.425-9.145,20.425-20.425v-79.544
					c0-11.28-9.145-20.425-20.425-20.425h-38.525c-11.281,0-20.425,9.145-20.425,20.425v79.544
					C610.924,451.919,620.069,461.064,631.349,461.064z"/>
			</g>
		</g>
		<g>
			<g>
				<g>
					<g>
						<path style="fill:#FFC56B;" d="M596.288,150.524c0,0,36.536,53.239,54.149,55.974c0,0,1.888,3.928,25.352-32.496
							c1.526-2.939,3.143-6.17,4.857-9.732l-14.395-12.429c0.345-3.683,0.563-6.893,0.526-8.865c-0.024-1.252-0.8-2.503-0.983-2.411
							c-3.357,1.699-19.759,40.14-20.943,39.109l-38.583-37.046c-0.897-0.959,0.318,5.211-8.514-5.587L596.288,150.524z"/>
						<polygon style="fill:#F7E5CB;" points="580.606,169.115 611.559,166.277 595.27,122.406 565.47,123.115 						"/>
						<g>
							<defs>
								<polygon id="SVGID_00000155114752398448553750000008197908388653936056_" points="580.606,169.115 611.559,166.277 
									595.27,122.406 565.47,123.115 								"/>
							</defs>
							<clipPath id="SVGID_00000042734027871146069050000003962570223113598620_">
								<use xlink:href="#SVGID_00000155114752398448553750000008197908388653936056_"  style="overflow:visible;"/>
							</clipPath>
							
								<path style="clip-path:url(#SVGID_00000042734027871146069050000003962570223113598620_);fill:#ABDBFD;stroke:#ABDBFD;stroke-width:0.8099;stroke-miterlimit:10;" d="
								M600.591,130.21c0,0,2.483,10.997-3.193,12.416c-5.676,1.419-6.386,2.483-3.902,7.45c2.483,4.967-1.064,5.321-3.193,2.128
								c-2.129-3.193-1.064-0.355-2.838,5.321s-5.321,4.967-5.321,4.967s-6.386-14.545-4.612-18.093
								c1.774-3.548,7.45-0.355,3.548-6.031c-3.902-5.676-5.321-8.514-5.676-12.062c-0.355-3.548,10.288-2.483,12.771-2.483
								c2.483,0,10.997-1.419,10.997-1.419L600.591,130.21z"/>
						</g>
						<path style="fill:#FFC56B;" d="M607.686,143.868c0,0-6.563-4.789-8.514-4.434c-1.61,0.293,5.765,7.923,6.563,9.224
							C605.735,148.658,605.907,143.47,607.686,143.868z"/>
						<path style="fill:#FF616B;" d="M582.853,122.228c0,2.743,4.967,10.643,4.967,10.643s4.967-7.9,4.967-10.643
							c0-2.743-2.224-4.966-4.967-4.966C585.077,117.262,582.853,119.485,582.853,122.228z M585.514,122.406
							c0-1.273,1.032-2.306,2.306-2.306s2.306,1.032,2.306,2.306c0,1.274-1.032,2.306-2.306,2.306S585.514,123.679,585.514,122.406z
							"/>
					</g>
					<path style="fill:#ABDBFD;stroke:#ABDBFD;stroke-width:0.8099;stroke-miterlimit:10;" d="M611.071,186.733l33.117,25.694
						c0,0,38.407-41.233,39.111-61.879c0.348-10.199-7.066-16.712-13.375-16.076c-12.401,2.13-14.464,11.998-28.17,33.491
						c-0.099,0.155-14.268-9.085-21.081-13.54L611.071,186.733z"/>
				</g>
			</g>
			<g>
				<g>
					<path style="fill:#1E2046;" d="M644.699,135.413l19.982-39.974c-0.36-2.891,4.871-9.813,7.406-11.265
						c6.943-3.977,15.456-4.231,23.348-2.921c4.028,0.669,9.237,2.133,12.931,5.418c6.118,5.438,23.512,42.076,17.218,51.107"/>
				</g>
				<g>
					<path style="fill:#FFC56B;" d="M695.248,107.062c-0.012,0.385,0.293,0.703,0.679,0.702c1.61-0.007,5.454,0.423,5.979,4.636
						c0.531,4.259-5.399,5.019-7.841,5.152c-0.705,0.038-1.359,0.354-1.837,0.874c-1.469,1.597-4.479,16.124-5.609,20.475
						c-2.496,9.61,4.618,3.04,4.618,3.04s-19.21,7.477-26.648,2.292c0,0,7.731-21.933,5.143-22.943
						c-4.571-1.784-10.288-4.983-6.739-21.274c3.344-15.352,15.883-14.12,18.693-13.622
						C684.057,86.815,695.819,87.945,695.248,107.062z"/>
					<path style="fill:#271B4A;" d="M670.127,121.686c0,0,5.538,0,11.076-0.791c2.18-0.312-9.299,11.957-10.285,9.494
						C670.127,128.411,670.127,121.686,670.127,121.686z"/>
				</g>
				<g>
					<polygon style="fill:#FFC56B;" points="755.163,447.108 747.815,428.679 722.746,429.152 739.634,449.768 748.288,459.424 
											"/>
					<g>
						<g>
							<g>
								<path style="fill:#79C7FD;" d="M739.634,449.768l-18.498,11.878c-0.828,0.532-0.393,1.659,0.645,1.66
									c8.498,0.015,31.394-0.074,37.414-0.115c0.73-0.005,1.238-0.608,1.012-1.201c-1.248-3.277-4.661-12.375-5.046-14.882
									c-0.068-0.441-5.289,7.042-7.789,6.22C745.221,452.62,740.121,449.335,739.634,449.768z"/>
							</g>
							<path style="fill:#FF616B;" d="M722.762,469.784h35.553c1.324,0,2.397-1.073,2.397-2.397v-3.141
								c0-0.655-0.531-1.187-1.187-1.187h-37.974c-0.655,0-1.187,0.531-1.187,1.187v3.141
								C720.365,468.71,721.438,469.784,722.762,469.784z"/>
						</g>
					</g>
					<path style="fill:#FFC56B;" d="M681.594,427.733c0,1.419,0.389,19.375,0.389,19.375l-7.957,12.79l-7.571-10.129l-7.566-23.927
						L681.594,427.733z"/>
					<g>
						<g>
							<path style="fill:#79C7FD;" d="M666.455,449.768l-18.498,11.878c-0.828,0.532-0.393,1.659,0.645,1.66
								c8.498,0.015,31.394-0.074,37.414-0.115c0.73-0.005,1.238-0.608,1.012-1.201c-1.248-3.277-4.66-12.375-5.046-14.882
								c-0.068-0.441-5.289,7.042-7.789,6.22C672.041,452.62,666.941,449.335,666.455,449.768z"/>
							<path style="fill:#FF616B;" d="M649.977,469.784h35.553c1.324,0,2.397-1.073,2.397-2.397v-3.141
								c0-0.655-0.531-1.187-1.187-1.187h-37.974c-0.656,0-1.187,0.531-1.187,1.187v3.141
								C647.58,468.71,648.654,469.784,649.977,469.784z"/>
						</g>
					</g>
					<g>
						<g>
							<path style="fill:#E84354;" d="M691.883,268.836c0,0-15.113-37.512-23.647-51.627c-3.774-6.243-15.91-11.077-15.91,0.204
								c0,0-11.922,60.017-11.472,88.211c0.448,28.052,12.949,125.066,12.949,125.066s46.069,2.785,48.956-1.064L691.883,268.836z"
								/>
							<path style="fill:none;stroke:#FFFFFF;stroke-width:0.7911;stroke-miterlimit:10;" d="M676.852,239.169
								c0,0-12.263,58.939-11.471,70.806c0.791,11.867,7.12,122.625,7.12,122.625"/>
						</g>
						<g>
							<g>
								<path style="fill:#FF616B;" d="M653.118,215.83c3.178-13.296,32.102-9.969,42.325-0.791
									c7.058,6.336,19.017,25.387,22.943,40.743c4.553,17.809,6.823,37.318,9.983,56.328c0.697,4.194,3.862,20.412,5.732,28.814
									c6.14,27.578,14.969,57.701,17.117,90.094c-5.612,1.353-52.519,3.105-53.424-0.329
									c-20.931-79.466-19.486-113.718-27.671-132.679c-0.94-2.178-2.302-17.562-2.828-19.875L653.118,215.83z"/>
								<path style="fill:none;stroke:#FFFFFF;stroke-width:0.7911;stroke-miterlimit:10;" d="M675.814,207.504
									c0,0,22.794,30.478,28.728,55.003c5.933,24.525,36.178,168.064,36.178,168.064"/>
								<path style="fill:none;stroke:#FFFFFF;stroke-width:0.7911;stroke-miterlimit:10;" d="M665.381,217.017
									c0,0,5.099,26.258,28.459,18.469"/>
							</g>
						</g>
					</g>
				</g>
				<path style="fill:#FFC56B;" d="M663.798,141.069c0.395,0.956-12.599,24.853-14.636,34.019
					c-1.582,7.12,4.219,41.208,4.051,41.684c0,0,7.421,1.037,48.56,1.037c-0.307-9.959,4.175-61.475,0-73.179
					c0,0-6.398-2.89-9.825-3.143C691.948,141.486,679.57,151.612,663.798,141.069z"/>
				<g>
					<path style="fill:#1E2046;" d="M668.545,89.25c0,0,24.404,20.08,27.14,18.457C702.742,103.52,693.466,71.845,668.545,89.25z"/>
				</g>
				<g>
					<g>
						<path style="fill:#025169;stroke:#025169;stroke-width:0.4308;stroke-miterlimit:10;" d="M683.556,74.493l0.423,0.783
							c0.229,0.424,0.758,0.582,1.182,0.353l0.163-0.088c0.424-0.229,0.582-0.758,0.353-1.182l-0.423-0.783L683.556,74.493z"/>
						<path style="opacity:0.78;fill:#FFC56B;" d="M688.973,83.992c-3.466,1.872-5.056,5.65-3.55,8.438
							c1.506,2.788,5.536,3.53,9.003,1.658c3.466-1.872,5.056-5.65,3.55-8.438C696.47,82.862,692.439,82.12,688.973,83.992z"/>
						<path style="fill:none;stroke:#025169;stroke-width:0.4308;stroke-miterlimit:10;" d="M683.781,74.051
							c-3.379,1.825-5.145,5.108-3.943,7.332c1.201,2.224,4.915,2.548,8.294,0.723c3.379-1.825,5.145-5.108,3.943-7.332
							C690.874,72.549,687.16,72.225,683.781,74.051z"/>
						<path style="fill:none;stroke:#025169;stroke-width:0.4308;stroke-miterlimit:10;" d="M683.781,74.051
							c-3.379,1.825-5.145,5.108-3.943,7.332c1.201,2.224,4.915,2.548,8.294,0.723c3.379-1.825,5.145-5.108,3.943-7.332
							C690.874,72.549,687.16,72.225,683.781,74.051z"/>
						<path style="opacity:0.78;fill:#FFC56B;" d="M683.781,74.051c-3.379,1.825-5.145,5.108-3.943,7.332
							c1.201,2.224,4.915,2.548,8.294,0.723c3.379-1.825,5.145-5.108,3.943-7.332C690.874,72.549,687.16,72.225,683.781,74.051z"/>
						<path style="opacity:0.27;fill:#FFFFFF;" d="M697.581,85.042c0.145,0.191,0.278,0.393,0.395,0.608
							c1.104,2.045,0.542,4.621-1.202,6.588C696.946,89.829,697.237,87.432,697.581,85.042z"/>
						<path style="opacity:0.27;fill:#FFFFFF;" d="M694.125,83.066c0.322,0.055,0.636,0.126,0.936,0.226
							c-0.563,3.668-1.026,7.348-1.174,11.062c-0.336,0.153-0.676,0.275-1.016,0.381C693.245,90.841,693.673,86.952,694.125,83.066z
							"/>
						<path style="opacity:0.27;fill:#FFFFFF;" d="M688.379,94.801c-1.273-0.411-2.331-1.215-2.956-2.372
							c-1.506-2.788,0.084-6.565,3.55-8.438c0.293-0.159,0.591-0.296,0.891-0.417C689.284,87.306,688.771,91.047,688.379,94.801z"/>
						<path style="opacity:0.27;fill:#FFFFFF;" d="M681.443,82.828c0.237-2.479,0.358-4.964,0.43-7.451
							c0.556-0.491,1.196-0.941,1.909-1.326c1.179-0.637,2.397-1.006,3.537-1.13c-0.683,3.331-1.393,6.659-1.407,10.071
							C684.238,83.437,682.635,83.372,681.443,82.828z"/>
						<path style="opacity:0.27;fill:#FFFFFF;" d="M691.34,73.872c0.299,0.254,0.548,0.554,0.735,0.901
							c0.925,1.713,0.089,4.054-1.888,5.873C690.587,78.391,690.966,76.132,691.34,73.872z"/>
						<path style="fill:none;stroke:#FFF8ED;stroke-width:0.4308;stroke-miterlimit:10;" d="M683.781,74.051
							c-3.379,1.825-5.145,5.108-3.943,7.332c1.201,2.224,4.915,2.548,8.294,0.723c3.379-1.825,5.145-5.108,3.943-7.332
							C690.874,72.549,687.16,72.225,683.781,74.051z"/>
						<path style="fill:none;stroke:#FFF8ED;stroke-width:0.4308;stroke-miterlimit:10;" d="M688.299,84.382
							c0,0,2.233-2.43-0.977-1.84"/>
						
							<line style="fill:none;stroke:#FFF8ED;stroke-width:0.4308;stroke-miterlimit:10;" x1="695.104" y1="93.841" x2="696.287" y2="107.772"/>
						<path style="fill:none;stroke:#FFF8ED;stroke-width:0.4884;stroke-miterlimit:10;" d="M688.973,83.992
							c-3.466,1.872-5.056,5.65-3.55,8.438c1.506,2.788,5.536,3.53,9.003,1.658c3.466-1.872,5.056-5.65,3.55-8.438
							C696.47,82.862,692.439,82.12,688.973,83.992z"/>
					</g>
				</g>
				<g>
					<path style="fill:#ABDBFD;stroke:#ABDBFD;stroke-width:0.8099;stroke-miterlimit:10;" d="M666.931,135.886
						c-10.465,6.267-15.731,30.035-17.768,39.201c-1.582,7.12-11.39,38.37-11.559,38.846c0,0,28.394-2.365,69.532-2.365
						c-0.307-9.959-1.188-55.235-5.364-66.939c0,0-11.726-6.007-15.153-6.259C686.62,138.37,682.702,146.43,666.931,135.886z"/>
				</g>
				<g style="opacity:0.48;">
					<path style="fill:#ABDBFD;stroke:#ABDBFD;stroke-width:0.8099;stroke-miterlimit:10;" d="M658.388,194.312
						c9.006-10.822,17.481-21.902,25.822-33.24c4.509-6.129,9.154-12.333,14.279-18.067c1.926,0.927,3.284,1.623,3.284,1.623
						c4.175,11.704,5.056,56.98,5.364,66.939c-31.609,0-55.676,1.395-65.138,2.042C647.546,207.249,652.992,200.795,658.388,194.312
						z"/>
				</g>
				<g>
					<g>
						<path style="fill:#FF9E59;" d="M699.801,112.056c0,0-2.425-5.118-5.504,1.74"/>
						<g>
							<path style="fill:#FFFFFF;" d="M663.712,107.702l7.799,1.782c0,0-2.805,3.302-4.973,2.391
								C664.371,110.965,663.712,107.702,663.712,107.702z"/>
							<path style="fill:#FF9E59;" d="M668.792,103.079l-0.481,4.031l-2.004-0.657c-0.37-0.121-0.475-0.594-0.191-0.86
								L668.792,103.079z"/>
							<path style="fill:#1E2046;" d="M675.903,99.606c0.586,0.667,0.038-1.811-0.864-2.303c-0.903-0.493-1.979-0.26-2.404,0.52
								C672.635,97.822,674.496,98.002,675.903,99.606z"/>
							<path style="fill:#1E2046;" d="M665.91,96.365c1.796-0.29,3.162,0.436,3.162,0.436c0.076-0.885-0.693-1.673-1.718-1.761
								c-0.384-0.033-0.881,0.194-1.306,0.479C666.048,95.52,665.55,96.394,665.91,96.365z"/>
							<path style="fill:#1E2046;" d="M671.968,103.614c-0.201,0.687-0.633,1.165-0.966,1.068c-0.333-0.097-0.44-0.733-0.24-1.42
								c0.201-0.687,0.634-1.165,0.967-1.068C672.062,102.291,672.169,102.927,671.968,103.614z"/>
							<path style="fill:#1E2046;" d="M667.232,102.24c-0.192,0.656-0.605,1.113-0.923,1.02c-0.318-0.093-0.421-0.7-0.229-1.356
								c0.192-0.656,0.605-1.112,0.923-1.02C667.321,100.976,667.423,101.584,667.232,102.24z"/>
							<path style="fill:#FF9E59;" d="M682.778,112.879c-0.898,1.95-3.207,2.803-5.157,1.904c-1.95-0.898-2.803-3.207-1.905-5.157
								c0.898-1.95,3.208-2.803,5.158-1.905C682.824,108.619,683.676,110.928,682.778,112.879z"/>
						</g>
					</g>
				</g>
				<g>
					<path style="fill:#FFC56B;" d="M683.345,185.322c0,0,18.621,88.359,30.219,99.418c11.598,11.058,16.183,15.913,18.341,15.374
						c2.158-0.539-5.934-11.058-6.473-14.025c-0.539-2.967,0.27-8.091-1.079-14.295c-1.348-6.204-8.631-88.737-8.631-88.737
						L683.345,185.322z"/>
					<g>
						<path style="fill:#ABDBFD;stroke:#ABDBFD;stroke-width:0.8099;stroke-miterlimit:10;" d="M727.949,229.069
							c-4.744-24.803-13.516-62.716-20.574-78.117c-4.251-9.277-13.795-11.786-19.154-8.395
							c-6.703,4.926-10.208,55.674-10.884,91.715L727.949,229.069z"/>
					</g>
				</g>
			</g>
			<g>
				<defs>
					<path id="SVGID_00000156558166339047373080000009001098878208698031_" d="M639.274,208.614l-28.203-21.881l9.601-32.309
						c6.813,4.455,20.982,13.695,21.081,13.54c13.706-21.493,15.769-31.362,28.17-33.491c4.083-0.411,8.616,2.184,11.221,6.823
						c4.158-0.233,5.474-2.925,5.474-2.925c1.557,0.115,4.824,1.416,7.928,2.803c4.751,0.398,9.977,3.561,12.827,9.779
						c7.058,15.401,15.831,53.314,20.574,78.117l-50.612,5.203c0.132-7.027,0.372-14.614,0.721-22.311
						c-24.837,0.672-40.454,1.972-40.454,1.972C637.646,213.813,638.298,211.749,639.274,208.614z"/>
				</defs>
				<clipPath id="SVGID_00000181789969571669156340000003885531487827333005_">
					<use xlink:href="#SVGID_00000156558166339047373080000009001098878208698031_"  style="overflow:visible;"/>
				</clipPath>
				<g style="clip-path:url(#SVGID_00000181789969571669156340000003885531487827333005_);">
					<g>
						<g>
							<path style="fill:#FFF8ED;" d="M739.016,209.688c-5.214,3.941-11.54,6.225-18.06,6.621c-3.182,0.193-6.39-0.051-9.498-0.764
								c-1.507-0.346-2.99-0.799-4.43-1.361c-1.767-0.69-3.975-1.543-3.895-3.819c0.057-1.626,0.95-3.412,1.647-4.849
								c0.676-1.394,1.461-2.733,2.299-4.036c1.565-2.436,3.312-4.748,4.962-7.126c1.603-2.31,3.133-4.694,4.238-7.288
								c0.993-2.331,1.886-5.2,1.585-7.773c-0.301-2.575-2.724-3.311-4.988-3.097c-3.339,0.316-6.647,1.774-9.773,2.904
								c-3.369,1.218-6.798,2.437-10.383,2.81c-3.23,0.336-6.494-0.088-9.546-1.194c-6.49-2.353-11.48-7.697-13.313-14.361
								c-0.891-3.24-1.059-6.689-0.394-9.988c0.424-2.106,1.667-4.979,0.244-6.969c-0.888-1.242-2.439-1.321-3.835-1.325
								c-2.015-0.005-4.026,0.164-6.031,0.349c-4.219,0.389-8.545,0.926-12.743,0.069c-7.029-1.435-12.64-7.164-14.057-14.178
								c-0.102-0.504-0.873-0.291-0.771,0.213c1.144,5.661,4.98,10.642,10.158,13.211c6.644,3.295,14.077,1.562,21.128,1.2
								c1.664-0.086,4.609-0.601,5.615,1.104c0.793,1.345,0.219,3.255-0.131,4.648c-0.759,3.021-0.985,6.075-0.526,9.166
								c0.931,6.273,4.488,11.915,9.827,15.354c5.498,3.542,12.026,4.354,18.32,2.798c3.403-0.841,6.653-2.179,9.961-3.318
								c1.652-0.569,3.327-1.116,5.037-1.487c1.493-0.324,3.672-0.586,4.811,0.707c1.133,1.286,0.575,3.752,0.239,5.267
								c-0.34,1.532-0.878,3.014-1.548,4.431c-1.262,2.672-2.94,5.121-4.644,7.525c-1.742,2.456-3.544,4.878-5.076,7.473
								c-0.724,1.225-1.384,2.488-1.941,3.798c-0.576,1.355-1.258,2.905-1.169,4.408c0.189,3.197,4.557,4.288,7.044,5.019
								c3.371,0.99,6.909,1.427,10.42,1.332c7.051-0.191,13.989-2.522,19.624-6.781
								C739.826,210.072,739.427,209.377,739.016,209.688L739.016,209.688z"/>
						</g>
					</g>
					<g>
						<g>
							<path style="fill:#FFF8ED;" d="M714.562,155.155c-2.892,2.709-6.294,4.844-10.034,6.174
								c-3.761,1.337-8.421,1.919-11.694-0.887c-3.192-2.736-2.746-7.556-2.2-11.309c0.598-4.109,1.936-8.068,3.897-11.725
								c0.243-0.454-0.447-0.858-0.691-0.404c-2.155,4.017-3.564,8.38-4.11,12.909c-0.476,3.945-0.612,8.622,2.825,11.329
								c3.365,2.65,7.906,2.299,11.744,1.011c4.043-1.357,7.722-3.623,10.829-6.533
								C715.504,155.368,714.938,154.803,714.562,155.155L714.562,155.155z"/>
						</g>
					</g>
					<g>
						<g>
							<path style="fill:#FFF8ED;" d="M634.76,156.422c1.075-0.03,2.149-0.061,3.224-0.091c0.522-0.015,1.096-0.1,1.612-0.046
								c0.639,0.067,0.712,0.4,1.009,0.966c0.913,1.74,1.603,3.592,2.078,5.498c0.933,3.75,1.022,7.716,0.271,11.507
								c-0.76,3.836-2.474,6.989-4.499,10.276c-1.468,2.382-2.778,5.933,0.365,7.626c1.524,0.821,3.388,0.927,5.058,1.261
								c1.984,0.397,3.956,0.881,5.866,1.552c3.77,1.325,8.155,3.656,9.689,7.605c1.683,4.332-2.118,7.768-5.214,10.169
								c-3.074,2.384-6.542,4.244-10.179,5.61c-8.055,3.026-16.816,3.746-25.35,3.176c-0.514-0.034-0.512,0.766,0,0.8
								c7.577,0.506,15.309-0.007,22.607-2.207c3.5-1.055,6.894-2.505,10.016-4.411c2.958-1.806,6.171-4.083,8.093-7.022
								c4.735-7.24-4.615-12.984-10.437-14.822c-1.933-0.61-3.915-1.05-5.906-1.42c-1.856-0.345-4.634-0.506-5.311-2.663
								c-0.614-1.954,0.903-4.12,1.918-5.671c0.976-1.491,1.852-3.01,2.539-4.658c3.185-7.641,2.623-16.655-1.576-23.794
								c-0.07-0.119-0.205-0.202-0.346-0.198c-1.842,0.052-3.685,0.104-5.527,0.156C634.246,155.636,634.244,156.436,634.76,156.422
								L634.76,156.422z"/>
						</g>
					</g>
					<g>
						<g>
							<path style="fill:#FFF8ED;" d="M629.465,153.407c1.982,7.764,2.918,16.384-1.062,23.703
								c-1.752,3.222-4.346,5.762-7.612,7.433c-3.355,1.717-7.081,2.542-10.736,3.353c-0.502,0.111-0.29,0.883,0.213,0.771
								c3.79-0.841,7.645-1.713,11.109-3.527c3.297-1.727,5.94-4.359,7.717-7.627c4.086-7.515,3.179-16.339,1.142-24.32
								C630.11,152.696,629.338,152.907,629.465,153.407L629.465,153.407z"/>
						</g>
					</g>
					<g>
						<g>
							<path style="fill:#FFF8ED;" d="M665.488,210.283c1.955-4.676,4.935-8.885,8.732-12.246c1.684-1.491,3.864-3.031,6.226-2.953
								c3.168,0.105,3.476,3.555,3.806,5.984c0.389,2.868,0.682,5.748,0.878,8.636c0.185,2.715,0.049,5.496,0.361,8.194
								c0.215,1.859,1.118,3.025,2.938,3.525c2.422,0.665,4.832,1.267,7.198,2.126c5.537,2.01,10.743,4.837,15.479,8.334
								c0.415,0.306,0.814-0.388,0.404-0.691c-4.329-3.196-9.046-5.824-14.052-7.801c-2.55-1.008-5.167-1.839-7.829-2.496
								c-1.514-0.374-2.812-0.704-3.236-2.412c-0.348-1.401-0.189-2.985-0.239-4.416c-0.106-3.072-0.321-6.14-0.644-9.197
								c-0.268-2.544-0.301-5.577-1.304-7.962c-1.77-4.208-6.791-2.459-9.504-0.321c-4.432,3.491-7.822,8.308-9.986,13.486
								C664.518,210.545,665.292,210.752,665.488,210.283L665.488,210.283z"/>
						</g>
					</g>
				</g>
			</g>
		</g>
	</g>
</g>
</svg>