<?xml version="1.0" encoding="utf-8"?>
<!-- Generator: Adobe Illustrator 27.5.0, SVG Export Plug-In . SVG Version: 6.00 Build 0)  -->
<svg version="1.1" xmlns="http://www.w3.org/2000/svg" xmlns:xlink="http://www.w3.org/1999/xlink" x="0px" y="0px"
	 viewBox="0 0 3710 3710" style="enable-background:new 0 0 3710 3710;" xml:space="preserve">
<g id="Background">
	<g>
		<g>
			<rect style="fill:none;" width="3710" height="3710"/>
		</g>
	</g>
</g>
<g id="Illustration">
	<g>
		<path style="fill:#F4F7FA;" d="M3218.521,1648.409c-76.155-498.473-388.392-1110.882-1005.251-1174.972
			c0,0-468.348-56.967-930.036,29.372c-274.012,51.242-514.281,203.781-666.313,423.016
			c-152.034,219.236-202.818,486.563-141.185,741.427c40.03,165.536,67.08,336.86,59.656,506.959
			c-12.92,296.04-5.487,572.373,281.814,748.923c256.526,157.64,579.368,296.672,887.364,321.024
			c209.312,16.549,444.042-10.231,645.779-64.726C3378.447,2901.712,3294.676,2146.882,3218.521,1648.409z"/>
		<g>
			<g>
				<defs>
					<path id="SVGID_1_" d="M1755.241,2854.472c-186.696-105.158-409.526-265.755-577.833-498.4
						c-42.953-59.372-308.293-426.141-172.715-564.998c47.758-48.912,104.929-28.237,169.924-92.518
						c77.014-76.167,46.039-153.948,71.217-289.388c15.023-80.817,58.989-317.328,239.541-358.896
						c107.893-24.84,259.68,21.056,348.138,103.311c129.749,120.649,97.826,295.875,38.684,591.428
						c-52.428,261.997-102.194,305.196-136.654,494.516C1709.967,2380.035,1695.66,2585.448,1755.241,2854.472z"/>
				</defs>
				<use xlink:href="#SVGID_1_"  style="overflow:visible;fill:#D8DEE8;"/>
				<clipPath id="SVGID_00000114772282549521549160000015078978190185672079_">
					<use xlink:href="#SVGID_1_"  style="overflow:visible;"/>
				</clipPath>
				<g style="opacity:0.5;clip-path:url(#SVGID_00000114772282549521549160000015078978190185672079_);">
					<g>
						<path style="fill:none;" d="M1774.796,2879.297c42.824,58.431,90.775,112.721,143.823,162.786
							c162.517,153.374,364.701,262.943,600.938,325.665l2.813-10.598c-234.453-62.248-435.052-170.934-596.224-323.04
							c-576.702-544.251-384.813-1443.157-312.26-1705.691c41.146-148.882,129.861-289.058,263.683-416.633l-7.566-7.937
							c-135.278,128.963-225.005,270.827-266.686,421.647c-59.751,216.211-121.517,547.693-76.455,899.027
							C1559.607,2479.803,1642.781,2699.17,1774.796,2879.297z"/>
					</g>
					<g>
						<path style="fill:none;" d="M1524.253,1776.063l4.593-1.787c3.568-1.387,357.916-142.493,446.038-471.236l-10.591-2.839
							c-81.285,303.241-393.316,444.405-434.864,461.978c-246.627-481.108-75.35-771.443-16.804-849.128
							c1.624-2.156,2.609-3.529,2.91-4.065l-9.514-5.45c-0.303,0.478-1.047,1.448-2.153,2.915
							c-59.703,79.219-234.838,375.741,18.121,865.232L1524.253,1776.063z"/>
					</g>
					<g>
						<path style="fill:none;" d="M1110.096,1921.86c71.217,97.171,197.556,214.186,419.473,301.22l2.728,1.071l2.404-1.676
							c2.378-1.653,239.426-169.187,393.751-493.008l155.482-326.26l-9.901-4.719l-155.482,326.26
							c-144.765,303.769-362.694,468.743-387.757,487.032c-259.827-102.57-386.209-246.319-446.531-349.023
							c-65.357-111.3-69.167-199.135-69.198-200.008l-10.959,0.385c0.131,3.684,3.952,91.501,70.703,205.175
							C1084.718,1885.182,1096.39,1903.159,1110.096,1921.86z"/>
					</g>
				</g>
			</g>
		</g>
		<g>
			<g>
				<g>
					<defs>
						<path id="SVGID_00000023986764934541021160000004350831742739922612_" d="M2038.963,2849.154
							c71.603-55.137,167.917-146.638,220.893-284.148c69.476-180.342,3.37-281.369,42.531-594.364
							c24.761-197.904,44.035-335.767,151.309-400.029c84.065-50.359,212.106-49.489,283.874,11.819
							c59.673,50.976,87.428,149.705,92.098,218.698c3.806,56.229-7.521,95.679,21.524,127.942
							c29.683,32.972,66.518,19.548,94.839,44.589c57.435,50.782,7.161,195.484-0.964,218.87
							c-90.385,260.148-353.448,415.847-469.015,482.381C2380.497,2729.926,2234.013,2801.361,2038.963,2849.154z"/>
					</defs>
					
						<linearGradient id="SVGID_00000006705259410818986090000018044618415661376417_" gradientUnits="userSpaceOnUse" x1="2038.9629" y1="2191.8333" x2="2973.1816" y2="2191.8333">
						<stop  offset="0" style="stop-color:#AA80F9"/>
						<stop  offset="0.9964" style="stop-color:#6165D7"/>
					</linearGradient>
					
						<use xlink:href="#SVGID_00000023986764934541021160000004350831742739922612_"  style="overflow:visible;fill:url(#SVGID_00000006705259410818986090000018044618415661376417_);"/>
					<clipPath id="SVGID_00000123430221693856359350000017778392560658880671_">
						<use xlink:href="#SVGID_00000023986764934541021160000004350831742739922612_"  style="overflow:visible;"/>
					</clipPath>
					<g style="opacity:0.5;clip-path:url(#SVGID_00000123430221693856359350000017778392560658880671_);">
						<g>
							<path style="fill:#FFFFFF;" d="M1959.439,2891.935l-1.918-7.045c207.548-56.484,471.604-171.249,550.916-397.225
								c29.165-83.092,30.397-172.099,32.1-295.29c1.362-98.374-6.547-168.217-13.525-229.839
								c-9.133-80.643-16.345-144.34,1.784-234.014c18.393-90.986,57.62-179.379,116.587-262.726l5.961,4.217
								c-58.376,82.512-97.2,169.973-115.391,259.955c-17.901,88.548-10.747,151.741-1.687,231.747
								c7.003,61.837,14.939,131.924,13.572,230.744c-1.651,119.239-2.953,213.407-32.512,297.625
								c-37.81,107.725-121.262,200.676-248.043,276.27C2181.7,2817.383,2078.126,2859.635,1959.439,2891.935z"/>
						</g>
						<g>
							<path style="fill:#FFFFFF;" d="M2545.302,2124.453l-3.603-2.009c-0.622-0.348-62.935-35.567-121.438-108.869
								c-53.995-67.65-115.825-182.559-103.758-345.805l7.281,0.538c-11.893,160.885,49.004,274.082,102.182,340.711
								c49.653,62.21,101.863,96.443,115.739,104.937c70.672-171.046,176.189-272.387,252.541-327.386
								c83.458-60.117,151.248-79.462,151.923-79.65l1.963,7.033c-0.664,0.186-67.446,19.286-149.9,78.746
								c-76.063,54.852-181.419,156.272-251.374,327.934L2545.302,2124.453z"/>
						</g>
						<g>
							<path style="fill:#FFFFFF;" d="M2533.198,2389.969l-1.278-2.327c-0.546-0.997-55.59-100.762-130.337-189.963
								c-74.233-88.588-263.947-135.409-265.855-135.873l1.722-7.095c7.884,1.911,193.967,47.865,269.731,138.278
								c68.831,82.142,121.039,173.158,129.834,188.8c207.781-42.871,469.193-493.838,471.821-498.407l6.33,3.639
								c-0.664,1.153-67.343,116.664-159.122,235.607c-123.569,160.142-231.315,249.922-320.24,266.845L2533.198,2389.969z"/>
						</g>
						<g>
							<path style="fill:#FFFFFF;" d="M2298.972,2745.622l4.226-5.923c60.269-84.471,61.927-179.218,4.931-281.611
								c-42.692-76.693-104.005-128.958-104.619-129.477l4.712-5.578c0.624,0.528,62.955,53.659,106.286,131.504
								c56.313,101.161,55.865,198.967-1.16,283.347c24.926-1.194,111.575-7.066,221.549-33.77
								c120.121-29.167,293.446-89.868,437.014-213.41l279.092-240.167l4.761,5.535l-279.091,240.167
								c-144.721,124.536-319.284,185.665-440.239,215.017c-131.016,31.792-229.209,34.193-230.186,34.213L2298.972,2745.622z"/>
						</g>
					</g>
				</g>
			</g>
			<g>
				<g>
					<defs>
						<path id="SVGID_00000050640274311051276240000011640696052202386361_" d="M2305.137,2915.334
							c141.671,16.994,324.571,18.43,506.541-40.293c46.439-14.986,333.319-107.564,315.144-235.511
							c-6.402-45.07-45.249-56.465-54.862-116.574c-11.39-71.224,35.86-100.813,75.643-183.474
							c23.738-49.323,93.207-193.669,12.584-287.058c-48.178-55.807-147.774-90.893-227.662-81.526
							c-117.179,13.74-168.997,120.427-253.551,302.46c-74.954,161.365-65.224,204.157-121.226,319.413
							C2516.183,2678.309,2443.023,2794.277,2305.137,2915.334z"/>
					</defs>
					
						<linearGradient id="SVGID_00000007388377105804650830000009749140964338269616_" gradientUnits="userSpaceOnUse" x1="3027.1091" y1="1956.9154" x2="2696.6821" y2="2843.8518">
						<stop  offset="0.0036" style="stop-color:#E38DDD"/>
						<stop  offset="1" style="stop-color:#9571F6"/>
					</linearGradient>
					
						<use xlink:href="#SVGID_00000050640274311051276240000011640696052202386361_"  style="overflow:visible;fill:url(#SVGID_00000007388377105804650830000009749140964338269616_);"/>
					<clipPath id="SVGID_00000008872045405237929910000009237410613280203427_">
						<use xlink:href="#SVGID_00000050640274311051276240000011640696052202386361_"  style="overflow:visible;"/>
					</clipPath>
					<g style="opacity:0.5;clip-path:url(#SVGID_00000008872045405237929910000009237410613280203427_);">
						<g>
							<path style="fill:#FFFFFF;" d="M2284.863,2920.972c-46,14.532-93.124,24.821-141.323,30.835
								c-147.66,18.422-299.387-2.298-450.968-61.584l2.66-6.8c150.436,58.839,300.964,79.409,447.402,61.139
								c523.979-65.368,774.695-623.738,839.05-793.312c36.494-96.166,44.012-206.378,22.339-327.574l7.188-1.285
								c21.908,122.515,14.27,234.031-22.7,331.449c-53,139.654-150.286,342.019-312.768,513.003
								C2557.683,2791.078,2426.668,2876.175,2284.863,2920.972z"/>
						</g>
						<g>
							<path style="fill:#FFFFFF;" d="M2853.649,2426.979l-1.764-2.768c-1.371-2.149-136.173-217.407-54.121-428.674l6.806,2.643
								c-75.686,194.878,36.362,393.512,51.763,419.303c321.828-161.36,344.096-384.724,343.223-449.495
								c-0.024-1.797-0.013-2.923,0.036-3.329l7.255,0.817c-0.025,0.376-0.007,1.19,0.009,2.413
								c0.891,66.05-21.74,294.255-350.269,457.627L2853.649,2426.979z"/>
						</g>
						<g>
							<path style="fill:#FFFFFF;" d="M3018.731,2668.296c-76.498,24.166-190.415,37.296-343.873-3.295l-1.887-0.499l-0.632-1.846
								c-0.627-1.824-62.02-185.111-17.467-419.79l44.891-236.444l7.175,1.362l-44.891,236.444
								c-41.795,220.146,10.335,394.533,16.599,414.22c179.935,47.167,304.397,19.693,377.221-11.733
								c78.911-34.062,115.528-79.742,115.888-80.199l5.735,4.52c-1.521,1.927-38.135,47.594-118.73,82.382
								C3046.798,2658.583,3033.453,2663.646,3018.731,2668.296z"/>
						</g>
					</g>
				</g>
			</g>
		</g>
		<g>
			
				<linearGradient id="SVGID_00000060725726632134271960000012710550048726789304_" gradientUnits="userSpaceOnUse" x1="2042.9578" y1="3013.9158" x2="2149.2493" y2="3013.9158" gradientTransform="matrix(-0.9989 0.0464 0.0464 0.9989 3122.1228 -58.4637)">
				<stop  offset="0" style="stop-color:#444B8C"/>
				<stop  offset="0.9964" style="stop-color:#26264F"/>
			</linearGradient>
			<path style="fill:url(#SVGID_00000060725726632134271960000012710550048726789304_);" d="M1133.367,2996.114
				c-18.912,15.284-19.982,26.146-19.37,31.438c0.986,8.532,7.417,11.842,22.808,27.947c20.817,21.784,17.633,24.701,28.237,32.58
				c23.401,17.387,56.494,16.236,58.489,10.323c1.401-4.152-13.564-7.536-30.597-27.261c-15.717-18.202-21.037-36.241-22.459-41.533
				c-2.586-9.623-3.256-17.941-3.384-23.698L1133.367,2996.114z"/>
			
				<linearGradient id="SVGID_00000132065444182244806020000000118708689185414052_" gradientUnits="userSpaceOnUse" x1="2125.5708" y1="2886.7937" x2="2072.1785" y2="2984.4624" gradientTransform="matrix(-0.9989 0.0464 0.0464 0.9989 3122.1228 -58.4637)">
				<stop  offset="0" style="stop-color:#FFC444"/>
				<stop  offset="0.9964" style="stop-color:#F36F56"/>
			</linearGradient>
			<path style="fill:url(#SVGID_00000132065444182244806020000000118708689185414052_);" d="M1196.703,2949.536l-37.24,64.894
				c-8.967,3.968-17.544,1.964-25.497-9.605l14.53-78.89L1196.703,2949.536z"/>
			
				<linearGradient id="SVGID_00000122682399189204552280000015907432127671305367_" gradientUnits="userSpaceOnUse" x1="1926.3787" y1="3000.5083" x2="2114.3486" y2="2180.6365" gradientTransform="matrix(-0.9989 0.0464 0.0464 0.9989 3122.1228 -58.4637)">
				<stop  offset="0" style="stop-color:#AA80F9"/>
				<stop  offset="0.9964" style="stop-color:#6165D7"/>
			</linearGradient>
			<path style="fill:url(#SVGID_00000122682399189204552280000015907432127671305367_);" d="M1241.844,2117.236
				c36.281,61.243,95.129,179.444,107.035,339.278c11.752,157.759-28.043,277.99-44.714,322.83
				c-31.234,84.013-85.552,172.23-117.105,214.278c-21.281-8.9-33.809-22.858-55.09-31.759
				c3.196-11.579,13.064-49.819,19.275-72.595c4.813-17.646,13.687-50.296,15.511-57.274c15.28-58.429,3.217-102.274,7.422-174.537
				c4.905-84.277,24.213-74.483,21.309-125.078c-4.336-75.549-47.146-93.187-96.293-202.547
				c-33.64-74.852-68.972-153.471-36.499-196.456C1103.57,2079.274,1227.96,2113.29,1241.844,2117.236z"/>
			
				<linearGradient id="SVGID_00000043435928095271238390000017683228944576862631_" gradientUnits="userSpaceOnUse" x1="2168.1565" y1="3089.9138" x2="2314.4226" y2="3089.9138" gradientTransform="matrix(-1 0 0 1 3278.9661 0)">
				<stop  offset="0" style="stop-color:#444B8C"/>
				<stop  offset="0.9964" style="stop-color:#26264F"/>
			</linearGradient>
			<path style="fill:url(#SVGID_00000043435928095271238390000017683228944576862631_);" d="M979.316,3055.465
				c-11.344,7.215-18.19,24.363-13.022,35.159c5.081,10.614,18.03,7.26,49.484,16.928c33.691,10.354,40.356,20.815,65.191,20.792
				c10.034-0.012,28.225-1.736,29.745-8.485c1.068-4.742-6.655-9.465-32.081-26.548c-36.095-24.249-35.721-24.928-43.778-28.647
				C1014.617,3055.32,994.294,3045.939,979.316,3055.465z"/>
			
				<linearGradient id="SVGID_00000123429996211795945470000003409241220704775300_" gradientUnits="userSpaceOnUse" x1="2247.7561" y1="3082.4863" x2="2304.1238" y2="2965.8184" gradientTransform="matrix(-1 0 0 1 3278.9661 0)">
				<stop  offset="0" style="stop-color:#FFC444"/>
				<stop  offset="0.9964" style="stop-color:#F36F56"/>
			</linearGradient>
			<path style="fill:url(#SVGID_00000123429996211795945470000003409241220704775300_);" d="M1033.204,3004.07l-13.829,63.165
				c-1.931,2.827-21.622,9.583-35.416,0l5.084-63.165H1033.204z"/>
			
				<linearGradient id="SVGID_00000180367942111241778340000012408434376934753460_" gradientUnits="userSpaceOnUse" x1="1928.9821" y1="3001.1052" x2="2116.9521" y2="2181.2332" gradientTransform="matrix(-0.9989 0.0464 0.0464 0.9989 3122.1228 -58.4637)">
				<stop  offset="0" style="stop-color:#AA80F9"/>
				<stop  offset="0.9964" style="stop-color:#6165D7"/>
			</linearGradient>
			<path style="opacity:0.3;fill:url(#SVGID_00000180367942111241778340000012408434376934753460_);" d="M1062.696,2133.376
				c40.874-54.102,165.263-20.086,179.148-16.14c14.908,25.163,33.609,60.092,51.314,103.423
				c-44.085-8.669-63.219-0.799-72.135,9.656c-34.609,40.581,73.75,130.185,51.468,266.151
				c-8.715,53.178-31.459,77.111-27.297,142.057c3.096,48.333,18.109,72.796,28.489,108.18c6.228,21.232,11.051,47.337,11.28,78.888
				c-31.165,68.512-72.126,133.678-97.902,168.03c-21.281-8.9-33.809-22.858-55.09-31.757c3.196-11.579,13.064-49.82,19.275-72.596
				c4.813-17.646,13.687-50.296,15.511-57.274c15.28-58.429,3.217-102.274,7.422-174.537c4.905-84.277,24.213-74.483,21.309-125.078
				c-4.336-75.549-47.146-93.187-96.293-202.547C1065.555,2254.98,1030.223,2176.361,1062.696,2133.376z"/>
			
				<linearGradient id="SVGID_00000075125768091914827620000016535112186469635207_" gradientUnits="userSpaceOnUse" x1="2161.4971" y1="2674.105" x2="2493.5593" y2="2150.6182" gradientTransform="matrix(-1 0 0 1 3278.9661 0)">
				<stop  offset="0" style="stop-color:#AA80F9"/>
				<stop  offset="0.9964" style="stop-color:#6165D7"/>
			</linearGradient>
			<path style="fill:url(#SVGID_00000075125768091914827620000016535112186469635207_);" d="M1144.697,2150.429
				c3.51,140.932-1.806,304.236-24.996,484.238c-18.879,146.541-46.333,278.754-76.576,394.751
				c-4.182,2.362-18.852,9.961-37.642,6.402c-13.304-2.518-22.206-9.408-26.167-12.911c3.3-23.695,6.645-59.55,3.907-102.877
				c-4.707-74.478-22.243-89.65-29.769-166.725c-6.6-67.588,0.354-122.803,3.725-148.406
				c10.376-78.803,24.461-80.425,24.741-127.618c0.431-72.672-32.796-98.695-51.063-167.935
				c-12.185-46.189-18.646-115.146,11.996-209.706C1010.135,2116.571,1077.416,2133.502,1144.697,2150.429z"/>
			
				<linearGradient id="SVGID_00000008127525440492259720000009360332186317231497_" gradientUnits="userSpaceOnUse" x1="1912.0519" y1="1529.2651" x2="2019.9399" y2="1911.9301" gradientTransform="matrix(-1 0 0 1 3278.9661 0)">
				<stop  offset="0" style="stop-color:#311944"/>
				<stop  offset="1" style="stop-color:#893976"/>
			</linearGradient>
			<path style="fill:url(#SVGID_00000008127525440492259720000009360332186317231497_);" d="M1216.602,1588.112
				c24.708,13.875,59.028,36.862,91.017,73.495c73.778,84.487,119.405,223.513,71.986,269
				c-32.261,30.946-108.776,21.571-135.132-15.155c-19.385-27.013-5.431-60.191,1.263-107.347
				C1252.939,1757.362,1252.68,1683.775,1216.602,1588.112z"/>
			
				<linearGradient id="SVGID_00000160880241462620516770000006536078061961074361_" gradientUnits="userSpaceOnUse" x1="2098.3835" y1="1477.5267" x2="2310.2927" y2="2229.1406" gradientTransform="matrix(-1 0 0 1 3278.9661 0)">
				<stop  offset="0" style="stop-color:#311944"/>
				<stop  offset="1" style="stop-color:#893976"/>
			</linearGradient>
			<path style="fill:url(#SVGID_00000160880241462620516770000006536078061961074361_);" d="M930.107,2133.634
				c27.317-360.09,114.417-507.496,106.804-551.254c10.961-7.881,54.271-20.409,152.386-7.494
				c8.384,3.08,30.766,12.112,52.948,32.39c0,0,5.156,4.702,12.209,12.962c-68.927,13.016-139.139,52.264-164.413,107.868
				c-43.781,106.327,37.527,225.162,0,318.98c-19.721,49.302-51.27,93.001-88.934,133.855
				C958.045,2170.203,928.533,2154.389,930.107,2133.634z"/>
			
				<linearGradient id="SVGID_00000085973440995182056110000013861306971137143976_" gradientUnits="userSpaceOnUse" x1="2204.2717" y1="2701.2385" x2="2536.3342" y2="2177.7515" gradientTransform="matrix(-1 0 0 1 3278.9661 0)">
				<stop  offset="0" style="stop-color:#AA80F9"/>
				<stop  offset="0.9964" style="stop-color:#6165D7"/>
			</linearGradient>
			<path style="opacity:0.3;fill:url(#SVGID_00000085973440995182056110000013861306971137143976_);" d="M942.854,2099.644
				c19.695,4.956,39.391,9.912,59.086,14.868c-10.3,35.488-20.193,88.746-8.3,149.21c16.423,83.493,58.868,101.813,65.111,177.103
				c5.616,67.733-26.361,81.547-41.671,171.891c-15.689,92.583,8.056,136.125,13.022,213.559
				c3.399,52.995-2.117,122.326-34.362,206.704c-7.966-3.151-13.529-7.508-16.424-10.068c3.3-23.695,6.645-59.55,3.907-102.877
				c-4.707-74.478-22.243-89.65-29.769-166.725c-6.6-67.588,0.354-122.803,3.725-148.406
				c10.376-78.803,24.461-80.425,24.741-127.618c0.431-72.672-32.796-98.695-51.063-167.935
				C918.673,2263.161,912.212,2194.204,942.854,2099.644z"/>
			
				<linearGradient id="SVGID_00000130637995924341674430000013797107016818929855_" gradientUnits="userSpaceOnUse" x1="1976.5524" y1="1407.9514" x2="2188.4668" y2="2159.5842" gradientTransform="matrix(-1 0 0 1 3278.9661 0)">
				<stop  offset="0" style="stop-color:#311944"/>
				<stop  offset="1" style="stop-color:#893976"/>
			</linearGradient>
			<path style="fill:url(#SVGID_00000130637995924341674430000013797107016818929855_);" d="M1242.247,1607.277
				c0,0,26.106,23.755,41.328,58.655c22.932,52.578-1.765,97.714-9.173,183.576c-8.126,94.188,3.369,251.093,29.868,307.305
				c0.461,0.979,1.609,3.774,1.141,7.318c-7.163,54.328-380.805,42.016-375.303-30.497
				c27.317-360.09,114.417-507.496,106.804-551.253c10.961-7.882,54.271-20.41,152.386-7.495
				C1197.682,1577.967,1220.064,1587,1242.247,1607.277z"/>
			<g>
				
					<linearGradient id="SVGID_00000059989156068847219340000016084699670546117544_" gradientUnits="userSpaceOnUse" x1="387.6221" y1="1807.2847" x2="394.3889" y2="1627.0375" gradientTransform="matrix(0.917 0.3988 -0.3988 0.917 1471.5609 -184.8945)">
					<stop  offset="0" style="stop-color:#FFC444"/>
					<stop  offset="0.9964" style="stop-color:#F36F56"/>
				</linearGradient>
				<path style="fill:url(#SVGID_00000059989156068847219340000016084699670546117544_);" d="M1131.183,1484.464
					c0,0-24.13,75.737-31.943,84.85c-7.814,9.114,31.364,32.936,61.396,22.195c27.579-9.863-0.022-51.897-0.022-51.897
					L1131.183,1484.464z"/>
				<g>
					
						<linearGradient id="SVGID_00000009571952392501518840000004057295699338351273_" gradientUnits="userSpaceOnUse" x1="2039.3638" y1="1415.4949" x2="2126.4841" y2="1526.1611" gradientTransform="matrix(-1 0 0 1 3278.9661 0)">
						<stop  offset="0" style="stop-color:#444B8C"/>
						<stop  offset="0.9964" style="stop-color:#26264F"/>
					</linearGradient>
					<path style="fill:url(#SVGID_00000009571952392501518840000004057295699338351273_);" d="M1226.44,1525.67
						c16.266-6.893,29.176-27.893,26.38-47.507c-2.406-16.876-15.799-26.835-23.816-32.799
						c-23.231-17.283-60.659-25.067-84.844-8.476c-14.331,9.833-16.653,46.151-17.394,52.491
						c-0.837,7.173,2.528,11.746,4.182,18.492c2.293,9.355,5.797,24.147,11.292,48.674c3.879-4.055,9-8.887,15.434-13.619
						c2.474-1.82,12.265-8.863,23.308-13.01C1203.114,1521.603,1211.022,1532.206,1226.44,1525.67z"/>
					
						<linearGradient id="SVGID_00000003103281490938065850000016878886147570662800_" gradientUnits="userSpaceOnUse" x1="522.7557" y1="1649.8196" x2="518.8386" y2="1965.4121" gradientTransform="matrix(0.8962 0.4436 -0.4436 0.8962 1445.2483 -209.8398)">
						<stop  offset="0" style="stop-color:#FFC444"/>
						<stop  offset="0.9964" style="stop-color:#F36F56"/>
					</linearGradient>
					<path style="fill:url(#SVGID_00000003103281490938065850000016878886147570662800_);" d="M1128.982,1530.922
						c0,0,0.83,36.321,34.642,53.056c30.274,14.984,72.407-47.969,61.807-72.637c-3.537-8.229-14.875-17.356-26.641-20.379
						c-6.949-1.785-10.412-0.472-21.71-3.608c-10.421-2.893-12.4-5.379-16.466-4.66c-5.089,0.9-11.679,6.509-17.034,28.941
						c-2.305-8.856-7.734-14.887-13.761-15.391c-0.962-0.08-3.755,0.125-6.076,1.537
						C1115.339,1502.894,1116.641,1516.387,1128.982,1530.922z"/>
					
						<linearGradient id="SVGID_00000096763926207573858410000012895648228597166003_" gradientUnits="userSpaceOnUse" x1="2027.7036" y1="1424.6735" x2="2114.824" y2="1535.3398" gradientTransform="matrix(-1 0 0 1 3278.9661 0)">
						<stop  offset="0" style="stop-color:#444B8C"/>
						<stop  offset="0.9964" style="stop-color:#26264F"/>
					</linearGradient>
					<path style="fill:url(#SVGID_00000096763926207573858410000012895648228597166003_);" d="M1161.559,1478.015
						c0.799,1.864-6.539,4.627-11.159,11.869c-8.969,14.062-4.389,39.819,9.653,49.906c8.303,5.962,13.794,2.055,29.237,8.94
						c9.562,4.263,16.4,9.749,20.524,13.512c-4.579,18.463-18.009,31.744-32.814,32.941c-15.943,1.29-27.716-11.9-32.639-17.416
						c-3.294-3.691-13.861-15.488-13.756-31.379c0.111-16.558,11.417-20.035,8.151-33.168c-1.647-6.625-5.977-11.586-6.469-22.85
						c-0.133-3.06,0.06-5.587,0.247-7.253C1144.677,1479.497,1160.401,1475.318,1161.559,1478.015z"/>
					
						<linearGradient id="SVGID_00000169545333042080708610000009029469473339833224_" gradientUnits="userSpaceOnUse" x1="850.3552" y1="1701.1906" x2="854.7888" y2="1740.7159" gradientTransform="matrix(-0.8674 -0.4976 -0.4976 0.8674 2778.2634 496.6379)">
						<stop  offset="0" style="stop-color:#FFC444"/>
						<stop  offset="1" style="stop-color:#F36F56"/>
					</linearGradient>
					<path style="fill:url(#SVGID_00000169545333042080708610000009029469473339833224_);" d="M1195.829,1561.976
						c0,0-8.206-0.356-18.74-7.268c-0.513-0.337-1.186-0.519-1.411-0.283c-0.849,0.886,3.457,9.561,10.94,11.476
						c5.313,1.359,11.373-0.909,11.395-2.365C1198.02,1562.921,1196.95,1562.383,1195.829,1561.976z"/>
				</g>
			</g>
			
				<linearGradient id="SVGID_00000075862250722225119050000015582113136840592001_" gradientUnits="userSpaceOnUse" x1="1999.4336" y1="1401.5015" x2="2211.3481" y2="2153.1345" gradientTransform="matrix(-1 0 0 1 3278.9661 0)">
				<stop  offset="0" style="stop-color:#311944"/>
				<stop  offset="1" style="stop-color:#893976"/>
			</linearGradient>
			<path style="opacity:0.3;fill:url(#SVGID_00000075862250722225119050000015582113136840592001_);" d="M1035.462,1815.682
				c40.774,14.315,94.879,54.541,98.507,106.084c5.574,79.164-112.319,122.601-96.612,178.069
				c4.283,15.124,17.824,28.765,106.084,60.62c35.714,12.89,68.892,23.402,99.013,32.1
				c-107.999,15.918-316.466-4.621-312.347-58.921c10.457-137.846,29.676-244.433,48.988-326.062
				C998.663,1806.802,1017.686,1809.439,1035.462,1815.682z"/>
			
				<linearGradient id="SVGID_00000084505494019316451130000000732282776275501755_" gradientUnits="userSpaceOnUse" x1="2950.3228" y1="1000.3279" x2="3105.6279" y2="1551.1755" gradientTransform="matrix(-0.9424 0.3345 0.3345 0.9424 3410.1038 -484.9011)">
				<stop  offset="0" style="stop-color:#311944"/>
				<stop  offset="1" style="stop-color:#893976"/>
			</linearGradient>
			<path style="fill:url(#SVGID_00000084505494019316451130000000732282776275501755_);" d="M1163.835,1977.656
				c-66.324,67.332-161.011,88.542-233.809,54.857c-101.097-46.78-116.731-179.416-93.16-262.426
				c39.354-138.583,210.861-219.399,264.891-182.481c39.074,26.697,38.701,129.994-7.865,181.699
				c-41.858,46.475-106.15,34.735-123.635,82.083c-13.098,35.464,12.21,71.198,14.384,74.173
				c28.15,38.536,89.497,51.611,147.516,25.148C1142.716,1959.69,1153.275,1968.673,1163.835,1977.656z"/>
			
				<linearGradient id="SVGID_00000010288208501928159720000012203998716276161943_" gradientUnits="userSpaceOnUse" x1="2023.085" y1="1931.4216" x2="2027.8765" y2="1803.791" gradientTransform="matrix(-1 0 0 1 3278.9661 0)">
				<stop  offset="0" style="stop-color:#FFC444"/>
				<stop  offset="0.9964" style="stop-color:#F36F56"/>
			</linearGradient>
			<path style="fill:url(#SVGID_00000010288208501928159720000012203998716276161943_);" d="M1295.151,1861.614
				c-5.4-17.349-22.947-26.238-36.751-28.161c-13.512-1.883-35.777,1.188-44.642,18.852c-8.291,16.519-1.771,39.634,17.288,52.165
				c2.682-6.656,7.489-15.411,15.954-18.067c15.57-4.884,29.065,15.404,40.569,10.104
				C1296.739,1892.282,1299.115,1874.346,1295.151,1861.614z"/>
			<path style="fill:#FFFFFF;" d="M1231.464,1966.777l-51.039,8.873c-9.888,1.719-18.375-7.112-16.265-16.924l18.568-86.342
				c1.344-6.247,6.705-10.819,13.084-11.16l61.107-3.269c10.085-0.539,17.475,9.351,14.099,18.869l-28.636,80.739
				C1240.673,1962.38,1236.5,1965.902,1231.464,1966.777z"/>
			
				<linearGradient id="SVGID_00000023268974549516974440000013898672374547875726_" gradientUnits="userSpaceOnUse" x1="2087.396" y1="2000.3474" x2="2091.4641" y2="1891.9875" gradientTransform="matrix(-1 0 0 1 3278.9661 0)">
				<stop  offset="0" style="stop-color:#FFC444"/>
				<stop  offset="0.9964" style="stop-color:#F36F56"/>
			</linearGradient>
			<path style="fill:url(#SVGID_00000023268974549516974440000013898672374547875726_);" d="M1142.386,1959.408
				c4.189-30.063,16.862-37.933,21.449-40.169c7.691-3.748,11.482-0.837,38.332-1.263c23.986-0.38,29.67-2.841,32.704,1.263
				c5.745,7.772-6.063,28.196-19.443,40.169c-18.758,16.786-42.02,18.225-51.593,18.247L1142.386,1959.408z"/>
		</g>
		<g>
			<g>
				<g>
					
						<linearGradient id="SVGID_00000013162595665313746550000004852560862026825363_" gradientUnits="userSpaceOnUse" x1="1365.4011" y1="1887.5756" x2="964.7239" y2="1931.2855" gradientTransform="matrix(-1 0 0 1 3475.8816 0)">
						<stop  offset="0" style="stop-color:#444B8C"/>
						<stop  offset="0.9964" style="stop-color:#26264F"/>
					</linearGradient>
					<path style="fill:url(#SVGID_00000013162595665313746550000004852560862026825363_);" d="M1632.052,878.085l-244.099,2028.908
						c-3.659,30.42,17.307,57.69,46.678,60.605l1016.705,111.619c62.283,3.874,96.384-27.946,100.227-60.294L2807.84,861.855
						c3.822-32.168-26.735-61.299-89.282-61.3l-1025.956,21.609C1662.901,822.661,1635.693,847.824,1632.052,878.085z"/>
					
						<linearGradient id="SVGID_00000111155896403300484100000011362430468479889590_" gradientUnits="userSpaceOnUse" x1="1718.4355" y1="877.5888" x2="727.6769" y2="4250.5474" gradientTransform="matrix(-1 0 0 1 3475.8816 0)">
						<stop  offset="0" style="stop-color:#444B8C"/>
						<stop  offset="0.9964" style="stop-color:#26264F"/>
					</linearGradient>
					<path style="fill:url(#SVGID_00000111155896403300484100000011362430468479889590_);" d="M1586.293,874.594l-245.44,2039.056
						c-3.68,30.574,17.358,57.984,46.837,60.919l1054.039,104.941c33.046,3.29,63.33-20.616,67.195-53.131L2766.64,858.165
						c3.843-32.333-20.429-58.323-53.837-57.76l-1065.722,17.982C1617.27,818.889,1589.954,844.181,1586.293,874.594z"/>
					
						<linearGradient id="SVGID_00000089576451840194231130000009866637935564583613_" gradientUnits="userSpaceOnUse" x1="1378.4131" y1="1977.6454" x2="2714.9604" y2="1977.6454">
						<stop  offset="0.0036" style="stop-color:#E38DDD"/>
						<stop  offset="1" style="stop-color:#9571F6"/>
					</linearGradient>
					<path style="fill:url(#SVGID_00000089576451840194231130000009866637935564583613_);" d="M1606.293,987.066l-227.491,1890.609
						c-3.437,28.564,16.265,54.125,43.859,56.808l991.288,96.361c30.72,2.986,58.872-19.328,62.471-49.594l238.167-2002.927
						c3.581-30.108-18.953-54.47-49.984-54.139l-1001.461,10.665C1635.261,935.144,1609.714,958.641,1606.293,987.066z"/>
					
						<linearGradient id="SVGID_00000138539531454685863110000018011940915293025195_" gradientUnits="userSpaceOnUse" x1="1347.1749" y1="794.5102" x2="182.7659" y2="3948.1177" gradientTransform="matrix(-1 0 0 1 3475.8816 0)">
						<stop  offset="0" style="stop-color:#FFC444"/>
						<stop  offset="0.9964" style="stop-color:#F36F56"/>
					</linearGradient>
					<path style="fill:url(#SVGID_00000138539531454685863110000018011940915293025195_);" d="M2137.874,873.192
						c-1.299,10.855,6.491,19.543,17.411,19.406c10.933-0.137,20.858-9.067,22.159-19.943c1.302-10.877-6.518-19.564-17.451-19.404
						C2149.07,853.41,2139.173,862.338,2137.874,873.192z"/>
					<g style="opacity:0.2;">
						<path style="fill:#FFFFFF;" d="M1777.678,2256.162c202.938-375.204,506.097-487.513,597.372-874.203
							c49.337-209.021,15.723-409.082-40.893-575.166l378.647-6.389c33.407-0.563,57.679,25.427,53.836,57.76L2508.925,3026.38
							c-3.865,32.515-34.149,56.421-67.196,53.13l-828.577-82.494C1607.024,2660.819,1687.216,2423.412,1777.678,2256.162z"/>
					</g>
				</g>
			</g>
			<g>
				<defs>
					<path id="SVGID_00000001658446580600334410000006104409687606893452_" d="M2482.943,2985.689
						c-3.222,28.986-22.588,54.445-48.123,52.329l-1013.685-84.011c-23.203-1.923-42.046-29.209-38.794-56.744l225.851-1912.711
						c3.173-26.873,27.175-45.63,50.344-45.911l1011.563-12.309c25.467-0.31,39.646,18.931,36.506,47.184L2482.943,2985.689z"/>
				</defs>
				<clipPath id="SVGID_00000051383873251635041420000015156087903123431553_">
					<use xlink:href="#SVGID_00000001658446580600334410000006104409687606893452_"  style="overflow:visible;"/>
				</clipPath>
				<g style="clip-path:url(#SVGID_00000051383873251635041420000015156087903123431553_);">
					<g>
						<path style="fill:#FFFFFF;" d="M2343.907,3150.138c-0.001-0.004-0.003-0.005-0.004-0.009l0,0
							c-1.062-2.433-86.079-194.363-388.173-607.715c-123.04-168.356-66.307-479.521-6.367-808.278
							c61.072-334.963,124.086-680.573-10.743-858.328c-62.138-81.921-160.746-121.732-300.442-122.171l4.562-32.807
							c148.651,0.237,254.319,43.286,321.904,132.151c143.233,188.333,78.829,541.767,16.407,884.333
							c-58.607,321.62-114.074,626.014,0.927,782.963c306.114,417.77,389.529,606.452,392.947,614.321L2343.907,3150.138z"/>
					</g>
					<g>
						<polygon style="fill:#FFFFFF;" points="2443.263,1492.029 1421.339,1478.546 1425.25,1445.649 2427.056,1457.307 
							2798.932,864.726 2827.421,880.501 						"/>
					</g>
					<g>
						<polygon style="fill:#FFFFFF;" points="1607.051,3262.989 1575.544,3259.944 1626.878,2819.73 2188.466,2862.298 
							2260.078,2228.995 1337.253,2185.823 1341.198,2152.632 2297.144,2195.841 2217.689,2899.808 1654.405,2856.207 						"/>
					</g>
					<g>
						<polygon style="fill:#FFFFFF;" points="2816.505,1938.201 2367.926,1923.512 2418.498,1474.452 2451.837,1474.865 
							2405.183,1889.919 2820.385,1902.862 						"/>
					</g>
				</g>
				<path style="clip-path:url(#SVGID_00000051383873251635041420000015156087903123431553_);fill:#FFFFFF;" d="M2064.477,1472.036
					c-3.709,32.299-31.587,58.115-62.187,57.65c-30.514-0.464-52.176-26.898-48.464-59.033c3.711-32.122,31.39-57.91,61.9-57.61
					C2046.323,1413.343,2068.185,1439.75,2064.477,1472.036z"/>
				<path style="clip-path:url(#SVGID_00000051383873251635041420000015156087903123431553_);fill:#FFFFFF;" d="M2443.558,1907.096
					c-3.714,33.111-32.592,59.068-64.416,57.967c-31.733-1.098-54.377-28.698-50.658-61.637
					c3.716-32.925,32.383-58.857,64.112-57.931C2424.415,1846.423,2447.27,1873.998,2443.558,1907.096z"/>
				<path style="clip-path:url(#SVGID_00000051383873251635041420000015156087903123431553_);fill:#FFFFFF;" d="M1955.405,2196.133
					c-3.744,32.556-31.609,57.749-62.158,56.263c-30.463-1.482-52.056-28.947-48.309-61.336
					c3.746-32.376,31.411-57.548,61.871-56.232C1937.355,2136.148,1959.147,2163.591,1955.405,2196.133z"/>
				<path style="clip-path:url(#SVGID_00000051383873251635041420000015156087903123431553_);fill:#FFFFFF;" d="M2251.746,2865.622
					c-3.762,33.385-32.513,58.442-64.133,55.96c-31.529-2.475-53.968-31.408-50.202-64.618c3.764-33.196,32.305-58.237,63.83-55.937
					C2232.856,2803.333,2255.506,2832.25,2251.746,2865.622z"/>
			</g>
			<g>
				
					<linearGradient id="SVGID_00000164472255094258184940000006454704939314463146_" gradientUnits="userSpaceOnUse" x1="1578.1493" y1="1328.5825" x2="1770.0194" y2="1328.5825" gradientTransform="matrix(-1 0 0 1 3694.8401 0)">
					<stop  offset="0" style="stop-color:#AB316D"/>
					<stop  offset="1" style="stop-color:#792D3D"/>
				</linearGradient>
				<path style="fill:url(#SVGID_00000164472255094258184940000006454704939314463146_);" d="M1947.403,1209.418
					c27.117-28.358,70.253-24.309,84.25-22.996c16.53,1.554,48.685,4.567,68.559,29.567c33.51,42.143,7.02,115.004-2.02,139.871
					c-22.237,61.163-63.453,97.369-87.313,114.803c-3.444,0.395-10.797,2.569-14.201-0.786
					c-19.035-18.761-39.995-58.181-55.276-103.899C1935.168,1347.324,1904.18,1254.614,1947.403,1209.418z"/>
				<g>
					
						<linearGradient id="SVGID_00000114760427610647952040000017691700360406543749_" gradientUnits="userSpaceOnUse" x1="2103.2646" y1="502.6022" x2="1323.4027" y2="1984.8258" gradientTransform="matrix(-1 0 0 1 3694.8401 0)">
						<stop  offset="0" style="stop-color:#FFC444"/>
						<stop  offset="0.9964" style="stop-color:#F36F56"/>
					</linearGradient>
					<path style="fill:url(#SVGID_00000114760427610647952040000017691700360406543749_);" d="M1997.558,1470.664
						c23.861-17.434,65.076-53.641,87.312-114.803c9.04-24.868,35.53-97.729,2.021-139.871c-19.876-25-52.03-28.015-68.56-29.568
						c-13.997-1.314-57.133-5.362-84.25,22.995c-43.222,45.197-12.234,137.907-6,156.561
						C1946.095,1419.87,1978.566,1453.78,1997.558,1470.664z"/>
					<path style="fill:#F4F7FA;" d="M1958.103,1290.659c0,30.639,22.891,55.261,51.178,54.992
						c28.342-0.268,51.358-25.412,51.358-56.159s-23.016-55.367-51.358-54.99C1980.995,1234.877,1958.103,1260.02,1958.103,1290.659
						z"/>
				</g>
			</g>
			<g>
				
					<linearGradient id="SVGID_00000097482098462527611100000010253439329221550214_" gradientUnits="userSpaceOnUse" x1="1191.3789" y1="1777.363" x2="1383.249" y2="1777.363" gradientTransform="matrix(-1 0 0 1 3694.8401 0)">
					<stop  offset="0" style="stop-color:#AB316D"/>
					<stop  offset="1" style="stop-color:#792D3D"/>
				</linearGradient>
				<path style="fill:url(#SVGID_00000097482098462527611100000010253439329221550214_);" d="M2334.173,1658.198
					c27.117-28.358,70.253-24.309,84.25-22.996c16.53,1.554,48.685,4.567,68.559,29.567c33.51,42.143,7.02,115.004-2.02,139.871
					c-22.237,61.163-63.453,97.369-87.313,114.803c-3.444,0.395-10.798,2.569-14.201-0.786
					c-19.035-18.761-39.995-58.181-55.276-103.899C2321.938,1796.104,2290.95,1703.394,2334.173,1658.198z"/>
				<g>
					
						<linearGradient id="SVGID_00000107562879141345181990000008019799278170331055_" gradientUnits="userSpaceOnUse" x1="1716.4943" y1="951.3828" x2="936.6323" y2="2433.6064" gradientTransform="matrix(-1 0 0 1 3694.8401 0)">
						<stop  offset="0" style="stop-color:#FFC444"/>
						<stop  offset="0.9964" style="stop-color:#F36F56"/>
					</linearGradient>
					<path style="fill:url(#SVGID_00000107562879141345181990000008019799278170331055_);" d="M2384.329,1919.444
						c23.861-17.434,65.076-53.641,87.312-114.803c9.04-24.868,35.53-97.729,2.022-139.871c-19.877-25-52.03-28.015-68.56-29.568
						c-13.997-1.314-57.133-5.362-84.25,22.995c-43.222,45.197-12.234,137.907-6,156.561
						C2332.865,1868.651,2365.336,1902.56,2384.329,1919.444z"/>
					<path style="fill:#F4F7FA;" d="M2344.874,1739.439c0,30.639,22.891,55.261,51.178,54.993
						c28.342-0.269,51.358-25.412,51.358-56.159s-23.016-55.367-51.358-54.99C2367.765,1683.658,2344.874,1708.8,2344.874,1739.439z
						"/>
				</g>
			</g>
			<g>
				
					<linearGradient id="SVGID_00000062888788629737461770000012957494500099519124_" gradientUnits="userSpaceOnUse" x1="1680.7448" y1="2095.0413" x2="1872.6147" y2="2095.0413" gradientTransform="matrix(-1 0 0 1 3694.8401 0)">
					<stop  offset="0" style="stop-color:#AB316D"/>
					<stop  offset="1" style="stop-color:#792D3D"/>
				</linearGradient>
				<path style="fill:url(#SVGID_00000062888788629737461770000012957494500099519124_);" d="M1844.808,1975.877
					c27.117-28.358,70.252-24.309,84.25-22.996c16.53,1.554,48.685,4.567,68.559,29.567c33.51,42.143,7.02,115.004-2.02,139.871
					c-22.237,61.163-63.453,97.369-87.313,114.803c-3.444,0.395-10.797,2.569-14.201-0.786
					c-19.035-18.761-39.995-58.181-55.276-103.899C1832.573,2113.783,1801.584,2021.073,1844.808,1975.877z"/>
				<g>
					
						<linearGradient id="SVGID_00000072985108099009539730000013558155438816780948_" gradientUnits="userSpaceOnUse" x1="2205.8601" y1="1269.061" x2="1425.998" y2="2751.2847" gradientTransform="matrix(-1 0 0 1 3694.8401 0)">
						<stop  offset="0" style="stop-color:#FFC444"/>
						<stop  offset="0.9964" style="stop-color:#F36F56"/>
					</linearGradient>
					<path style="fill:url(#SVGID_00000072985108099009539730000013558155438816780948_);" d="M1894.963,2237.122
						c23.861-17.434,65.076-53.641,87.312-114.803c9.04-24.868,35.53-97.729,2.022-139.871c-19.877-25-52.03-28.015-68.56-29.568
						c-13.997-1.314-57.133-5.362-84.25,22.995c-43.222,45.197-12.234,137.907-6,156.561
						C1843.499,2186.329,1875.97,2220.239,1894.963,2237.122z"/>
					<path style="fill:#F4F7FA;" d="M1855.508,2057.118c0,30.639,22.891,55.26,51.178,54.992
						c28.342-0.269,51.358-25.412,51.358-56.159c0-30.747-23.016-55.367-51.358-54.991
						C1878.399,2001.336,1855.508,2026.478,1855.508,2057.118z"/>
				</g>
			</g>
			<g>
				
					<linearGradient id="SVGID_00000052809313191697004370000008974836715988555441_" gradientUnits="userSpaceOnUse" x1="1402.3141" y1="2723.2173" x2="1594.1841" y2="2723.2173" gradientTransform="matrix(-1 0 0 1 3694.8401 0)">
					<stop  offset="0" style="stop-color:#AB316D"/>
					<stop  offset="1" style="stop-color:#792D3D"/>
				</linearGradient>
				<path style="fill:url(#SVGID_00000052809313191697004370000008974836715988555441_);" d="M2123.238,2604.052
					c27.117-28.358,70.253-24.309,84.25-22.997c16.53,1.554,48.685,4.567,68.559,29.567c33.51,42.143,7.02,115.004-2.02,139.871
					c-22.237,61.163-63.453,97.369-87.313,114.803c-3.444,0.395-10.797,2.569-14.201-0.786
					c-19.035-18.761-39.995-58.181-55.276-103.899C2111.003,2741.958,2080.015,2649.249,2123.238,2604.052z"/>
				<g>
					
						<linearGradient id="SVGID_00000176005026297090030570000011576993518206118836_" gradientUnits="userSpaceOnUse" x1="1927.4293" y1="1897.2372" x2="1147.5675" y2="3379.4602" gradientTransform="matrix(-1 0 0 1 3694.8401 0)">
						<stop  offset="0" style="stop-color:#FFC444"/>
						<stop  offset="0.9964" style="stop-color:#F36F56"/>
					</linearGradient>
					<path style="fill:url(#SVGID_00000176005026297090030570000011576993518206118836_);" d="M2173.394,2865.298
						c23.861-17.434,65.076-53.641,87.312-114.803c9.04-24.868,35.53-97.729,2.022-139.871c-19.877-25-52.03-28.015-68.561-29.568
						c-13.997-1.314-57.133-5.362-84.25,22.995c-43.222,45.197-12.234,137.907-6,156.561
						C2121.93,2814.505,2154.401,2848.415,2173.394,2865.298z"/>
					<path style="fill:#F4F7FA;" d="M2133.939,2685.293c0,30.639,22.891,55.261,51.178,54.992
						c28.342-0.268,51.358-25.412,51.358-56.159c0-30.747-23.016-55.367-51.358-54.99
						C2156.83,2629.512,2133.939,2654.654,2133.939,2685.293z"/>
				</g>
			</g>
		</g>
		<g>
			<g>
				<g>
					
						<linearGradient id="SVGID_00000129891511610436135480000007809802725830144927_" gradientUnits="userSpaceOnUse" x1="2825.9905" y1="2771.7617" x2="3102.1528" y2="2771.7617" gradientTransform="matrix(1 0 0 1 -503.313 0)">
						<stop  offset="0.494" style="stop-color:#EBEFF2"/>
						<stop  offset="1" style="stop-color:#FFFFFF"/>
					</linearGradient>
					
						<rect x="2322.677" y="2431.434" style="fill:url(#SVGID_00000129891511610436135480000007809802725830144927_);" width="276.163" height="680.656"/>
					<rect x="2343.628" y="2496.061" style="fill:#97A6B7;" width="234.262" height="42.627"/>
					<rect x="2343.628" y="2571.69" style="fill:#97A6B7;" width="234.262" height="42.627"/>
					<rect x="2343.628" y="2647.318" style="fill:#97A6B7;" width="234.262" height="42.627"/>
					<rect x="2343.628" y="2722.947" style="fill:#97A6B7;" width="234.262" height="42.627"/>
					<rect x="2343.628" y="2798.575" style="fill:#97A6B7;" width="234.262" height="42.627"/>
					<rect x="2343.628" y="2874.204" style="fill:#97A6B7;" width="234.262" height="42.627"/>
					<rect x="2343.628" y="2949.833" style="fill:#97A6B7;" width="234.262" height="42.627"/>
					<polygon style="fill:#97A6B7;" points="2322.677,2431.434 2322.677,3112.09 2248.399,3112.09 2248.399,2496.061 
						2320.525,2433.303 2322.373,2431.694 					"/>
					<rect x="2225.544" y="2958.083" style="opacity:0.5;fill:#97A6B7;" width="45.71" height="9.626"/>
					<rect x="2343.628" y="2496.061" style="opacity:0.5;fill:#97A6B7;" width="234.262" height="8.25"/>
					<rect x="2343.628" y="2571.69" style="opacity:0.5;fill:#97A6B7;" width="234.262" height="8.25"/>
					<rect x="2343.628" y="2647.318" style="opacity:0.5;fill:#97A6B7;" width="234.262" height="8.25"/>
					<rect x="2343.628" y="2722.947" style="opacity:0.5;fill:#97A6B7;" width="234.262" height="8.25"/>
					<rect x="2343.628" y="2798.575" style="opacity:0.5;fill:#97A6B7;" width="234.262" height="8.25"/>
					<rect x="2343.628" y="2874.204" style="opacity:0.5;fill:#97A6B7;" width="234.262" height="8.25"/>
					<rect x="2343.628" y="2949.833" style="opacity:0.5;fill:#97A6B7;" width="234.262" height="8.25"/>
					<path style="opacity:0.1;fill:#97A6B7;" d="M2589.669,3112.09h-266.992l-74.278-20.626v-131.855
						c2.924-8.222,6.057-16.033,9.409-23.224c31.301-67.213,21.112-94.536,27.664-143.722
						c6.466-48.553-7.637-309.004,35.054-359.359c0.562-0.66,1.124-1.279,1.704-1.87c0.048,0.082,0.095,0.179,0.143,0.261
						c0.104,0.193,0.209,0.371,0.305,0.55c16.846,30.581,26.359,48.224,31.815,63.817c0.981,2.791,1.829,5.528,2.552,8.25
						c2.8,10.354,3.99,20.667,4.609,34.376c0.4,9.145,0.562,19.801,0.762,33.002c0.038,2.64,0.085,5.39,0.133,8.25
						c0.028,1.65,0.057,3.342,0.085,5.06c0.181,10.066,0.314,19.856,0.505,29.317c0.229,11.523,0.543,22.565,1.104,33.001
						c0.153,2.791,0.324,5.541,0.514,8.25c0.886,12.5,2.238,24.022,4.4,34.377c2.695,13.008,6.656,24.133,12.561,33.001
						c2,3.025,4.228,5.775,6.714,8.25c5.571,5.569,12.399,9.722,20.788,12.279c10.59,3.218,20.913,10.905,30.531,22.098
						c7.685,8.924,14.913,20.089,21.474,33.001c1.352,2.668,2.686,5.431,3.98,8.25c4.857,10.56,9.275,22.083,13.151,34.376
						c3.314,10.492,6.228,21.547,8.685,33.002c0.59,2.722,1.143,5.473,1.676,8.25c2.143,11.151,3.847,22.661,5.047,34.377
						c1.124,10.849,1.829,21.877,2.048,33.001c0.057,2.736,0.085,5.487,0.085,8.25c0,1.691-0.009,3.382-0.038,5.087
						c-0.152,10.918,0.753,20.612,2.495,29.289C2512.154,3061.295,2578.614,3066.685,2589.669,3112.09z"/>
				</g>
				<g>
					<polygon style="fill:#97A6B7;" points="2100.646,2544.17 2110.258,3101.341 2022.044,3084.459 2022.044,2597.079 
						2093.526,2548.965 2099.744,2544.77 					"/>
					<rect x="2100.646" y="2543.621" style="fill:#F4F7FA;" width="218.467" height="557.719"/>
					<rect x="2142.258" y="2605.22" style="fill:#97A6B7;" width="27.742" height="459.494"/>
					<rect x="2200.054" y="2605.22" style="fill:#97A6B7;" width="28.898" height="459.494"/>
					<rect x="2257.85" y="2605.22" style="fill:#97A6B7;" width="28.898" height="459.494"/>
					<rect x="2160.753" y="2605.22" style="opacity:0.5;fill:#97A6B7;" width="9.247" height="459.494"/>
					<rect x="2219.705" y="2605.22" style="opacity:0.5;fill:#97A6B7;" width="9.248" height="459.494"/>
					<rect x="2278.656" y="2605.22" style="opacity:0.5;fill:#97A6B7;" width="9.247" height="459.494"/>
					<path style="opacity:0.1;fill:#97A6B7;" d="M2319.113,3101.307v0.033l-218.468-14.93l-78.602-1.952v-56.687
						c36.411-63.13,24.424-89.385,32.284-136.217c7.676-45.716-8.519-286.601,39.198-342.59c1.722-2.048,3.525-3.829,5.421-5.344
						c0.266,0.383,0.532,0.766,0.798,1.149c0.301,0.433,0.601,0.866,0.902,1.299c24.829,35.777,36.203,52.858,41.613,71.022
						c5.271,17.697,4.878,36.41,5.734,74.451c1.063,46.782,0.844,87.487,12.761,115.506c2.497,5.91,5.537,11.238,9.247,15.949
						c7.201,9.174,16.911,15.983,30.054,19.962c1.457,0.449,2.948,0.865,4.485,1.232c5.121,1.232,10.184,3.163,15.166,5.71
						c3.121,1.582,6.208,3.413,9.247,5.494c10.207,6.909,19.951,16.399,28.898,27.936c7.56,9.739,14.553,20.927,20.806,33.23
						c2.855,5.627,5.56,11.488,8.092,17.564c0.393,0.932,0.774,1.864,1.156,2.813c14.148,35.028,22.541,76.566,21.801,118.853
						C2309.38,3074.204,2312.987,3089.021,2319.113,3101.307z"/>
				</g>
				<g>
					<rect x="2113.473" y="2888.927" style="opacity:0.5;fill:#97A6B7;" width="70.89" height="4.18"/>
					<rect x="2113.473" y="2940.884" style="opacity:0.5;fill:#97A6B7;" width="70.89" height="4.18"/>
					<rect x="2113.473" y="2992.84" style="opacity:0.5;fill:#97A6B7;" width="70.89" height="4.18"/>
					<g>
						<polygon style="fill:#97A6B7;" points="2041.224,2860.669 2041.224,3112.09 1928.379,3092.583 1928.379,2884.54 						"/>
						<rect x="2041.224" y="2861.267" style="fill:#F4F7FA;" width="353.002" height="250.823"/>
						<g>
							<rect x="2104.88" y="2891.127" style="fill:#97A6B7;" width="69.443" height="39.415"/>
							<rect x="2200.364" y="2891.127" style="fill:#97A6B7;" width="70.89" height="39.415"/>
							<rect x="2297.295" y="2891.127" style="fill:#97A6B7;" width="69.443" height="39.415"/>
							<rect x="2104.88" y="2943.083" style="fill:#97A6B7;" width="69.443" height="39.415"/>
							<rect x="2200.364" y="2943.083" style="fill:#97A6B7;" width="70.89" height="39.415"/>
							<rect x="2297.295" y="2943.083" style="fill:#97A6B7;" width="69.443" height="39.415"/>
							<rect x="2104.88" y="2995.039" style="fill:#97A6B7;" width="69.443" height="39.415"/>
							<rect x="2200.364" y="2995.039" style="fill:#97A6B7;" width="70.89" height="39.415"/>
							<rect x="2297.295" y="2995.039" style="fill:#97A6B7;" width="69.443" height="39.415"/>
							<rect x="2104.88" y="3046.996" style="fill:#97A6B7;" width="69.443" height="39.415"/>
							<rect x="2200.364" y="3046.996" style="fill:#97A6B7;" width="70.89" height="39.415"/>
							<rect x="2297.295" y="3046.996" style="fill:#97A6B7;" width="69.443" height="39.415"/>
						</g>
						<rect x="2104.88" y="2891.127" style="opacity:0.5;fill:#97A6B7;" width="69.443" height="4.18"/>
						<rect x="2104.88" y="2943.083" style="opacity:0.5;fill:#97A6B7;" width="69.443" height="4.18"/>
						<rect x="2104.88" y="2995.039" style="opacity:0.5;fill:#97A6B7;" width="69.443" height="4.181"/>
						<rect x="2104.88" y="3046.996" style="opacity:0.5;fill:#97A6B7;" width="69.443" height="4.18"/>
						<path style="opacity:0.1;fill:#97A6B7;" d="M2394.225,3107.928v4.162h-353.002l-112.845-19.507v-25.331
							c7.552-7.937,16.667-15.665,27.488-22.048c41.478-24.485,27.966-34.44,36.646-52.357
							c8.68-17.916-10.605-115.056,48.711-131.581c55.453,27.668,51.605,26.474,53.529,55.939
							c1.027,15.76,0.955,29.698,10.127,40.048c7.957,8.994,22.901,15.271,51.604,17.677c6.033,0.508,11.994,1.314,17.839,2.395
							c18.662,3.434,36.211,9.639,51.084,17.713c19.56,10.6,34.562,24.419,41.55,39.415c1.925,4.103,3.241,8.301,3.877,12.542
							c0.217,1.409,0.362,2.831,0.42,4.252c0.058,1.236,0.058,2.472,0,3.709c-0.03,0.436-0.03,0.866,0,1.29
							c0.274,10.714,10.98,18.101,26.041,23.769c6.38,2.401,13.541,4.491,21.035,6.396
							C2348.263,3094.019,2383.361,3098.611,2394.225,3107.928z"/>
					</g>
				</g>
			</g>
		</g>
		<g>
			
				<linearGradient id="SVGID_00000081646253577542195870000012572581448494919315_" gradientUnits="userSpaceOnUse" x1="5730.8052" y1="1857.6353" x2="5741.1499" y2="1857.6353" gradientTransform="matrix(0.9998 0.0213 -0.0213 0.9998 -2892.4282 -129.734)">
				<stop  offset="0" style="stop-color:#FF9085"/>
				<stop  offset="1" style="stop-color:#FB6FBB"/>
			</linearGradient>
			<path style="fill:url(#SVGID_00000081646253577542195870000012572581448494919315_);" d="M2796.322,1912.542l6.34-118.294
				c0.552-4.478,2.275-7.497,3.561-7.445c1.279,0.051,2.736,3.164,2.963,7.584c-0.84,39.458-1.681,78.917-2.521,118.375
				L2796.322,1912.542z"/>
			
				<linearGradient id="SVGID_00000065038525162966882700000011398350751644534407_" gradientUnits="userSpaceOnUse" x1="4983.5068" y1="1345.8204" x2="5762.0986" y2="2701.8425" gradientTransform="matrix(0.9181 0.3963 -0.3963 0.9181 -1393.1978 -1189.5165)">
				<stop  offset="0" style="stop-color:#FCB148"/>
				<stop  offset="0.0521" style="stop-color:#FDBA46"/>
				<stop  offset="0.1424" style="stop-color:#FFC244"/>
				<stop  offset="0.3183" style="stop-color:#FFC444"/>
				<stop  offset="0.4849" style="stop-color:#FDB946"/>
				<stop  offset="0.7754" style="stop-color:#F99C4D"/>
				<stop  offset="0.8658" style="stop-color:#F8924F"/>
				<stop  offset="1" style="stop-color:#F8924F"/>
			</linearGradient>
			<path style="fill:url(#SVGID_00000065038525162966882700000011398350751644534407_);" d="M3064.138,3033.711
				c-16.696-23.277-113.008-254.546-145.179-358.379c-32.171-103.833-61.172-266.813-69.702-314.748
				c-8.53-47.935-16.729-380.475-16.729-380.475l-66.824-1.423c0,0-17.799,297.603-36.691,377.427
				c-18.891,79.823-54.643,233.784-86.899,313.323c-32.257,79.539-160.712,370.965-180.366,396.883
				c-19.654,25.918-62.326,56.383-62.326,56.383l227.091,4.837c-1.976-10.427-2.923-21.209-2.688-32.244
				c1.819-85.412,72.534-153.177,157.945-151.358c85.412,1.819,153.177,72.533,151.357,157.945
				c-0.235,11.035-1.641,21.767-4.059,32.1l3.374,0.072l219.235,4.669C3151.678,3138.724,3080.834,3056.989,3064.138,3033.711z
				 M2696.146,2814.158c0,0,44.814-41.379,51.561-178.766l80.381,1.712c0,0-8.303,120.783,53.449,181.002L2696.146,2814.158z"/>
			
				<linearGradient id="SVGID_00000112620296216243373820000017822752265131104396_" gradientUnits="userSpaceOnUse" x1="5735.0815" y1="2652.9153" x2="5739.752" y2="2309.6494" gradientTransform="matrix(0.9998 0.0213 -0.0213 0.9998 -2892.4282 -129.734)">
				<stop  offset="0" style="stop-color:#FF9085"/>
				<stop  offset="1" style="stop-color:#FB6FBB"/>
			</linearGradient>
			<path style="fill:url(#SVGID_00000112620296216243373820000017822752265131104396_);" d="M2928.633,2605.341l-283.656-6.041
				c-1.277-0.027-2.3-1.095-2.273-2.372l0.907-42.61c0.027-1.277,1.094-2.3,2.372-2.273l283.656,6.041
				c1.277,0.027,2.3,1.094,2.273,2.372l-0.907,42.61C2930.977,2604.345,2929.91,2605.368,2928.633,2605.341z"/>
			
				<linearGradient id="SVGID_00000085928991985105698230000014193559841648253062_" gradientUnits="userSpaceOnUse" x1="5720.4497" y1="2674.1543" x2="5708.709" y2="2528.5688" gradientTransform="matrix(0.9998 0.0213 -0.0213 0.9998 -2892.4282 -129.734)">
				<stop  offset="0" style="stop-color:#FF9085"/>
				<stop  offset="1" style="stop-color:#FB6FBB"/>
			</linearGradient>
			<path style="fill:url(#SVGID_00000085928991985105698230000014193559841648253062_);" d="M3035.061,2889.831L2526.532,2879
				c-1.393-0.03-2.509-1.194-2.479-2.587l0.99-46.484c0.03-1.394,1.194-2.509,2.587-2.479l508.529,10.831
				c1.394,0.03,2.509,1.194,2.479,2.587l-0.99,46.484C3037.619,2888.745,3036.454,2889.861,3035.061,2889.831z"/>
			
				<linearGradient id="SVGID_00000044890949902776156630000017954030841876316569_" gradientUnits="userSpaceOnUse" x1="5704.8652" y1="2087.2173" x2="5770.0972" y2="1942.7744" gradientTransform="matrix(0.9998 0.0213 -0.0213 0.9998 -2892.4282 -129.734)">
				<stop  offset="0" style="stop-color:#FF9085"/>
				<stop  offset="1" style="stop-color:#FB6FBB"/>
			</linearGradient>
			<path style="fill:url(#SVGID_00000044890949902776156630000017954030841876316569_);" d="M2830.477,1900.854
				c9.492,6.591,11.431,17.927,12.392,23.544c2.849,16.658-5.037,21.983-1.113,35.433c0.978,3.352,5.299,8.945,13.9,19.994
				c17.142,22.02,21.935,26.166,22.179,34.855c0.247,8.756-4.312,15.1-5.518,16.698c-9.632,12.76-28.4,11.948-28.4,11.948
				l-39.737-0.846l-10.9-0.232l-39.737-0.846c0,0-18.785,0.013-27.866-13.146c-1.137-1.648-5.421-8.18-4.802-16.918
				c0.614-8.671,5.579-12.609,23.643-33.879c9.064-10.673,13.619-16.077,14.739-19.384c4.494-13.271-3.159-18.927,0.397-35.449
				c1.199-5.571,3.619-16.814,13.383-22.995C2782.087,1893.904,2821.681,1894.747,2830.477,1900.854z"/>
		</g>
		<g>
			<g>
				
					<linearGradient id="SVGID_00000100352879596881238330000009865776381285332639_" gradientUnits="userSpaceOnUse" x1="898.2922" y1="823.8073" x2="2568.2253" y2="823.8073">
					<stop  offset="0" style="stop-color:#311944"/>
					<stop  offset="1" style="stop-color:#6B3976"/>
				</linearGradient>
				<path style="fill:url(#SVGID_00000100352879596881238330000009865776381285332639_);" d="M2567.785,727.013l-27.758,197.061
					c-3.815,27.061-31.426,47.316-61.768,46.618l-1543.97-35.478c-23.349-0.537-38.638-19.052-35.617-42.683l21.943-171.626
					c0.294-2.301,0.163-5.09,0.791-7.282c5.808-20.495,24.729-36.718,45.922-36.718h1552.145
					C2550.003,676.904,2571.618,699.82,2567.785,727.013z"/>
				
					<linearGradient id="SVGID_00000002346981643380834710000018230746821151475367_" gradientUnits="userSpaceOnUse" x1="1157.0854" y1="823.8399" x2="2482.6072" y2="823.8399">
					<stop  offset="0" style="stop-color:#311944"/>
					<stop  offset="1" style="stop-color:#6B3976"/>
				</linearGradient>
				<path style="fill:url(#SVGID_00000002346981643380834710000018230746821151475367_);" d="M2482.398,757.956
					c1.829-13.03-8.526-23.628-23.104-23.693l-1261.787-5.627c-11.806-0.053-22.668,9.367-24.187,21.061l-16.056,123.884
					c-1.516,11.668,6.811,21.325,18.579,21.548l1257.563,23.909c14.527,0.276,27.804-10.055,29.628-23.053L2482.398,757.956z"/>
				<g>
					<g>
						
							<linearGradient id="SVGID_00000083068420370770247210000013133696835565908648_" gradientUnits="userSpaceOnUse" x1="966.47" y1="774.2638" x2="1067.4956" y2="774.2638">
							<stop  offset="0" style="stop-color:#311944"/>
							<stop  offset="1" style="stop-color:#6B3976"/>
						</linearGradient>
						<path style="fill:url(#SVGID_00000083068420370770247210000013133696835565908648_);" d="M1060.656,743.836
							c-14.054-22.247-45.086-26.594-69.152-9.781c-16.833,11.761-25.881,30.833-24.972,48.816c0.379,7.62,2.537,15.044,6.651,21.63
							c11.84,18.962,36.073,25.128,57.955,16.148c3.762-1.535,7.429-3.507,10.973-5.947c0.288-0.198,0.561-0.397,0.849-0.595
							c2.877-2.046,5.522-4.329,7.911-6.771C1068.207,789.736,1072.861,763.186,1060.656,743.836z M991.114,798.337
							c-1.159-1.233-2.207-2.604-3.132-4.096c-9.144-14.634-3.734-35.476,12.101-46.508c15.878-11.063,36.35-8.179,45.589,6.493
							c9.255,14.698,3.766,35.666-12.209,46.706c-6.042,4.166-12.743,6.322-19.206,6.572
							C1005.404,807.882,996.958,804.723,991.114,798.337z"/>
					</g>
					<g>
						
							<linearGradient id="SVGID_00000035494590554810441950000017617668713544842674_" gradientUnits="userSpaceOnUse" x1="1039.2332" y1="858.7003" x2="1098.9935" y2="858.7003">
							<stop  offset="0" style="stop-color:#311944"/>
							<stop  offset="1" style="stop-color:#6B3976"/>
						</linearGradient>
						<path style="fill:url(#SVGID_00000035494590554810441950000017617668713544842674_);" d="M1097.229,866.099
							c3.623,5.762,1.487,13.885-4.767,18.136l-10.366,7.045c-6.236,4.239-14.208,3.005-17.81-2.748l-23.309-37.234
							c-3.583-5.724-1.469-13.808,4.727-18.063l10.298-7.073c6.213-4.267,14.175-3.086,17.78,2.647L1097.229,866.099z"/>
					</g>
					<g>
						
							<linearGradient id="SVGID_00000097502300444757215040000015967440255464896956_" gradientUnits="userSpaceOnUse" x1="1029.5094" y1="822.8036" x2="1063.5797" y2="822.8036">
							<stop  offset="0" style="stop-color:#311944"/>
							<stop  offset="1" style="stop-color:#6B3976"/>
						</linearGradient>
						<path style="fill:url(#SVGID_00000097502300444757215040000015967440255464896956_);" d="M1062.047,825.104
							c3.149,5.013,1.291,12.103-4.147,15.831l0,0c-5.433,3.724-12.38,2.678-15.518-2.33l-11.349-18.113
							c-3.13-4.995-1.282-12.066,4.129-15.799l0,0c5.416-3.737,12.355-2.717,15.496,2.282L1062.047,825.104z"/>
					</g>
				</g>
				
					<linearGradient id="SVGID_00000143585378330375877780000011705065871931401880_" gradientUnits="userSpaceOnUse" x1="898.2922" y1="842.4733" x2="2540.1741" y2="842.4733">
					<stop  offset="0" style="stop-color:#311944"/>
					<stop  offset="1" style="stop-color:#6B3976"/>
				</linearGradient>
				<path style="opacity:0.4;fill:url(#SVGID_00000143585378330375877780000011705065871931401880_);" d="M2540.174,923.631
					c-3.854,27.06-31.573,47.833-61.915,47.135l-1543.97-35.515c-23.349-0.537-38.638-19.07-35.617-42.702l21.943-171.635
					c0.294-2.301,0.132-4.558,0.759-6.75c8.196,25.756,22.046,50.153,45.477,68.711c7.269,5.761,15.257,10.95,24.423,15.464
					c7.09,3.494,14.714,6.58,23.063,9.167c5.012,1.576,10.228,2.97,15.731,4.167c4.171,0.918,8.461,1.73,12.913,2.435
					c4.26,0.657,8.665,1.223,13.207,1.667c21.531,2.163,46.175,1.875,74.381-1.423c11.968-1.407,23.684-2.773,35.171-4.113
					c277.292-32.252,417.189-43.866,711.328,25.776c203.293,48.136,433.339,33.613,584.472,64.095
					C2491.152,906.058,2517.659,913.436,2540.174,923.631z"/>
			</g>
			<g>
				
					<linearGradient id="SVGID_00000055707496549767518130000002846057517100478362_" gradientUnits="userSpaceOnUse" x1="864.9675" y1="823.3353" x2="2524.2395" y2="823.3353">
					<stop  offset="0.0036" style="stop-color:#F36F56"/>
					<stop  offset="1" style="stop-color:#FFC444"/>
				</linearGradient>
				<path style="fill:url(#SVGID_00000055707496549767518130000002846057517100478362_);" d="M2523.756,726.842l-27.594,196.388
					c-3.792,26.968-28.793,47.213-58.94,46.519L902.576,934.485c-23.218-0.534-40.27-19.036-37.264-42.596l21.831-171.114
					c0.293-2.294,1.092-5.072,1.716-7.258c5.777-20.436,25.523-36.612,46.596-36.612h1542.75
					C2508.539,676.904,2527.566,699.743,2523.756,726.842z"/>
				<path style="fill:#FFFFFF;" d="M2442.281,757.703c1.819-12.989-8.467-23.553-22.954-23.618l-1254.268-5.594
					c-11.739-0.052-22.543,9.341-24.054,21.002l-15.978,123.535c-1.508,11.635,6.771,21.264,18.473,21.487l1250.079,23.767
					c14.436,0.274,27.63-10.025,29.444-22.983L2442.281,757.703z"/>
				<g>
					<g>
						<path style="fill:#FFFFFF;" d="M1028.246,743.646c-13.971-22.183-44.826-26.517-68.757-9.752
							c-16.738,11.728-25.737,30.746-24.835,48.678c0.376,7.598,2.521,15.002,6.611,21.568c11.771,18.908,35.866,25.055,57.624,16.1
							c3.741-1.531,7.387-3.497,10.911-5.93c0.287-0.198,0.558-0.396,0.845-0.594c2.86-2.04,5.491-4.317,7.866-6.752
							C1035.749,789.415,1040.379,762.941,1028.246,743.646z M959.094,797.993c-1.152-1.229-2.194-2.596-3.114-4.085
							c-9.09-14.592-3.708-35.375,12.037-46.376c15.788-11.031,36.144-8.157,45.329,6.474c9.201,14.656,3.741,35.564-12.145,46.573
							c-6.008,4.155-12.671,6.304-19.097,6.554C973.301,807.511,964.904,804.361,959.094,797.993z"/>
					</g>
					<g>
						<path style="fill:#FFFFFF;" d="M1064.597,865.558c3.602,5.745,1.477,13.845-4.742,18.084l-10.307,7.026
							c-6.201,4.227-14.127,2.997-17.708-2.739l-23.172-37.126c-3.562-5.708-1.459-13.768,4.702-18.012l10.24-7.053
							c6.178-4.255,14.095-3.077,17.678,2.639L1064.597,865.558z"/>
					</g>
					<g>
						<path style="fill:#FFFFFF;" d="M1029.62,824.681c3.131,4.999,1.282,12.069-4.125,15.786l0,0
							c-5.403,3.714-12.309,2.671-15.429-2.323l-11.282-18.061c-3.111-4.981-1.274-12.031,4.107-15.754l0,0
							c5.386-3.726,12.285-2.71,15.407,2.275L1029.62,824.681z"/>
					</g>
				</g>
				<path style="opacity:0.4;fill:#FFFFFF;" d="M2498.743,922.835c-3.833,26.973-31.375,47.681-61.522,46.987l-1534.645-35.3
					c-23.218-0.534-40.27-19.054-37.264-42.615l21.831-171.123c0.293-2.294,1.061-4.541,1.685-6.727
					c8.145,25.681,22.379,50.01,45.673,68.514c7.226,5.744,15.403,10.921,24.516,15.422c7.049,3.483,14.747,6.561,23.048,9.141
					c4.984,1.571,10.229,2.962,15.7,4.155c4.147,0.916,8.443,1.725,12.869,2.428c4.236,0.655,8.63,1.22,13.147,1.662
					c21.408,2.156,45.918,1.868,73.962-1.422c11.899-1.403,23.552-2.766,34.972-4.102c275.678-32.166,414.748-43.748,707.099,25.674
					c202.032,47.978,430.636,33.489,580.801,63.865C2450.037,905.322,2476.375,912.674,2498.743,922.835z"/>
			</g>
		</g>
		<g>
			<g>
				<g>
					
						<linearGradient id="SVGID_00000040561501471706470470000009320975542856668303_" gradientUnits="userSpaceOnUse" x1="676.9924" y1="2490.416" x2="687.3258" y2="2490.416">
						<stop  offset="0" style="stop-color:#444B8C"/>
						<stop  offset="0.9964" style="stop-color:#26264F"/>
					</linearGradient>
					<path style="fill:url(#SVGID_00000040561501471706470470000009320975542856668303_);" d="M687.326,2500.75
						c0,2.853-2.313,5.167-5.167,5.167l0,0c-2.854,0-5.167-2.313-5.167-5.167v-20.667c0-2.854,2.313-5.167,5.167-5.167l0,0
						c2.853,0,5.167,2.313,5.167,5.167V2500.75z"/>
					
						<linearGradient id="SVGID_00000182503222082993933530000002154407006487829671_" gradientUnits="userSpaceOnUse" x1="800.9932" y1="2490.416" x2="811.3266" y2="2490.416">
						<stop  offset="0" style="stop-color:#444B8C"/>
						<stop  offset="0.9964" style="stop-color:#26264F"/>
					</linearGradient>
					<path style="fill:url(#SVGID_00000182503222082993933530000002154407006487829671_);" d="M811.327,2500.75
						c0,2.853-2.313,5.167-5.167,5.167l0,0c-2.854,0-5.167-2.313-5.167-5.167v-20.667c0-2.854,2.313-5.167,5.167-5.167l0,0
						c2.854,0,5.167,2.313,5.167,5.167V2500.75z"/>
				</g>
				
					<linearGradient id="SVGID_00000006702677665557318110000008108736682257435280_" gradientUnits="userSpaceOnUse" x1="663.2146" y1="2469.7493" x2="825.1045" y2="2469.7493">
					<stop  offset="0" style="stop-color:#444B8C"/>
					<stop  offset="0.9964" style="stop-color:#26264F"/>
				</linearGradient>
				<path style="fill:url(#SVGID_00000006702677665557318110000008108736682257435280_);" d="M825.104,2469.749
					c0,4.756-3.855,8.611-8.611,8.611H671.826c-4.756,0-8.611-3.855-8.611-8.611l0,0c0-4.756,3.855-8.611,8.611-8.611h144.668
					C821.249,2461.138,825.104,2464.993,825.104,2469.749L825.104,2469.749z"/>
			</g>
			<g>
				
					<linearGradient id="SVGID_00000088098380777990254860000011061620349255438488_" gradientUnits="userSpaceOnUse" x1="604.6586" y1="2397.4153" x2="625.3254" y2="2397.4153">
					<stop  offset="0" style="stop-color:#444B8C"/>
					<stop  offset="0.9964" style="stop-color:#26264F"/>
				</linearGradient>
				<path style="fill:url(#SVGID_00000088098380777990254860000011061620349255438488_);" d="M625.325,2537.62
					c0,5.318-4.311,9.629-9.629,9.629h-1.408c-5.318,0-9.629-4.311-9.629-9.629v-280.41c0-5.318,4.311-9.629,9.629-9.629h1.408
					c5.318,0,9.629,4.311,9.629,9.629V2537.62z"/>
				
					<linearGradient id="SVGID_00000143602568700700713680000004468018019873649323_" gradientUnits="userSpaceOnUse" x1="862.9936" y1="2397.4153" x2="883.6604" y2="2397.4153">
					<stop  offset="0" style="stop-color:#444B8C"/>
					<stop  offset="0.9964" style="stop-color:#26264F"/>
				</linearGradient>
				<path style="fill:url(#SVGID_00000143602568700700713680000004468018019873649323_);" d="M883.66,2537.62
					c0,5.318-4.311,9.629-9.629,9.629h-1.408c-5.318,0-9.629-4.311-9.629-9.629v-280.41c0-5.318,4.311-9.629,9.629-9.629h1.408
					c5.318,0,9.629,4.311,9.629,9.629V2537.62z"/>
			</g>
			
				<linearGradient id="SVGID_00000177480597603804982240000011281649094766032024_" gradientUnits="userSpaceOnUse" x1="587.6558" y1="2244.1367" x2="901.718" y2="2244.1367">
				<stop  offset="0" style="stop-color:#444B8C"/>
				<stop  offset="0.9964" style="stop-color:#26264F"/>
			</linearGradient>
			<path style="fill:url(#SVGID_00000177480597603804982240000011281649094766032024_);" d="M901.718,2244.137
				c0,10.636-10.612,20.667-23.703,20.667H611.359c-13.091,0-23.703-10.031-23.703-20.667l0,0c0-10.636,10.612-20.667,23.703-20.667
				h266.657C891.106,2223.47,901.718,2233.5,901.718,2244.137L901.718,2244.137z"/>
			<g>
				<g>
					
						<linearGradient id="SVGID_00000060716301856398889080000013992744901508493185_" gradientUnits="userSpaceOnUse" x1="869.8826" y1="3091.4753" x2="904.3272" y2="3091.4753">
						<stop  offset="0" style="stop-color:#444B8C"/>
						<stop  offset="0.9964" style="stop-color:#26264F"/>
					</linearGradient>
					<path style="fill:url(#SVGID_00000060716301856398889080000013992744901508493185_);" d="M904.327,3105.253
						c0,9.512-7.711,17.222-17.222,17.222l0,0c-9.512,0-17.222-7.711-17.222-17.222v-27.556c0-9.512,7.711-17.222,17.222-17.222l0,0
						c9.512,0,17.222,7.711,17.222,17.222V3105.253z"/>
					
						<linearGradient id="SVGID_00000078730873471843646500000014244841524912456329_" gradientUnits="userSpaceOnUse" x1="873.327" y1="3051.864" x2="904.3272" y2="3051.864">
						<stop  offset="0" style="stop-color:#FF9085"/>
						<stop  offset="1" style="stop-color:#FB6FBB"/>
					</linearGradient>
					<path style="fill:url(#SVGID_00000078730873471843646500000014244841524912456329_);" d="M904.327,3056.735
						c0,7.772-6.301,14.073-14.073,14.073h-2.853c-7.773,0-14.074-6.301-14.074-14.073v-9.742c0-7.772,6.301-14.073,14.074-14.073
						h2.853c7.773,0,14.073,6.301,14.073,14.073V3056.735z"/>
				</g>
				<g>
					
						<linearGradient id="SVGID_00000059307697192870880530000001748977632314674601_" gradientUnits="userSpaceOnUse" x1="585.0016" y1="3091.3657" x2="620.5558" y2="3091.3657">
						<stop  offset="0" style="stop-color:#444B8C"/>
						<stop  offset="0.9964" style="stop-color:#26264F"/>
					</linearGradient>
					<path style="fill:url(#SVGID_00000059307697192870880530000001748977632314674601_);" d="M620.556,3104.698
						c0,9.818-7.959,17.777-17.777,17.777l0,0c-9.818,0-17.777-7.959-17.777-17.777v-26.666c0-9.818,7.959-17.777,17.777-17.777l0,0
						c9.818,0,17.777,7.959,17.777,17.777V3104.698z"/>
					
						<linearGradient id="SVGID_00000047023956569181599520000005829786085102049970_" gradientUnits="userSpaceOnUse" x1="587.4363" y1="3051.864" x2="618.4365" y2="3051.864">
						<stop  offset="0" style="stop-color:#FF9085"/>
						<stop  offset="1" style="stop-color:#FB6FBB"/>
					</linearGradient>
					<path style="fill:url(#SVGID_00000047023956569181599520000005829786085102049970_);" d="M618.437,3056.735
						c0,7.772-6.301,14.073-14.074,14.073h-2.853c-7.773,0-14.074-6.301-14.074-14.073v-9.742c0-7.772,6.301-14.073,14.074-14.073
						h2.853c7.773,0,14.074,6.301,14.074,14.073V3056.735z"/>
				</g>
			</g>
			
				<linearGradient id="SVGID_00000048465425310028483850000018102678226179427224_" gradientUnits="userSpaceOnUse" x1="525.4359" y1="2776.3066" x2="962.8832" y2="2776.3066">
				<stop  offset="0" style="stop-color:#FF9085"/>
				<stop  offset="1" style="stop-color:#FB6FBB"/>
			</linearGradient>
			<path style="fill:url(#SVGID_00000048465425310028483850000018102678226179427224_);" d="M962.883,3021.477
				c0,19.636-15.918,35.554-35.554,35.554H560.99c-19.636,0-35.554-15.918-35.554-35.554v-490.34
				c0-19.636,15.918-35.554,35.554-35.554h366.339c19.636,0,35.554,15.918,35.554,35.554V3021.477z"/>
			<g>
				<g>
					
						<linearGradient id="SVGID_00000070110123783671784060000010268633489322064806_" gradientUnits="userSpaceOnUse" x1="570.214" y1="2775.822" x2="625.3254" y2="2775.822">
						<stop  offset="0" style="stop-color:#FF9085"/>
						<stop  offset="1" style="stop-color:#FB6FBB"/>
					</linearGradient>
					<path style="opacity:0.6;fill:url(#SVGID_00000070110123783671784060000010268633489322064806_);" d="M625.325,2590.644V2961
						c0,12.444-7.634,22.992-18.835,26.695c-2.785,0.948-5.566,1.452-8.677,1.452c-0.503,0-0.872,0-1.375-0.03
						c-7.17-0.385-13.438-3.437-18.208-8.207c-5.097-5.096-8.017-12.148-8.017-19.91v-370.356c0-15.052,11.624-27.347,26.498-28.117
						c0.503-0.03,0.894-0.03,1.398-0.03c3.11,0,6.062,0.503,8.847,1.452c4.207,1.363,7.525,3.733,10.576,6.785
						C622.629,2575.83,625.325,2582.881,625.325,2590.644z"/>
					
						<linearGradient id="SVGID_00000095329926394985155580000004296429911357760667_" gradientUnits="userSpaceOnUse" x1="597.7697" y1="2775.822" x2="625.3254" y2="2775.822">
						<stop  offset="0" style="stop-color:#FF9085"/>
						<stop  offset="1" style="stop-color:#FB6FBB"/>
					</linearGradient>
					<path style="opacity:0.6;fill:url(#SVGID_00000095329926394985155580000004296429911357760667_);" d="M625.325,2590.644V2961
						c0,12.444-7.634,22.992-18.835,26.695c-2.785,0.948-4.954,1.452-8.064,1.452c-0.503,0-0.657,0-0.657-0.03v-426.591
						c0-0.03,0.365-0.03,0.869-0.03c3.11,0,5.797,0.503,8.582,1.452c4.207,1.363,7.393,3.733,10.444,6.785
						C622.761,2575.83,625.325,2582.881,625.325,2590.644z"/>
				</g>
				<g>
					
						<linearGradient id="SVGID_00000100351245347206112950000011936498939433750146_" gradientUnits="userSpaceOnUse" x1="666.659" y1="2775.822" x2="725.215" y2="2775.822">
						<stop  offset="0" style="stop-color:#FF9085"/>
						<stop  offset="1" style="stop-color:#FB6FBB"/>
					</linearGradient>
					<path style="opacity:0.6;fill:url(#SVGID_00000100351245347206112950000011936498939433750146_);" d="M725.215,2590.644V2961
						c0,12.444-8.692,22.992-19.893,26.695c-2.785,0.948-6.095,1.452-9.206,1.452c-0.503,0-1.136,0-1.64-0.03
						c-7.17-0.385-14.234-3.437-19.004-8.207c-5.097-5.096-8.814-12.148-8.814-19.91v-370.356c0-15.052,12.289-27.347,27.163-28.117
						c0.503-0.03,1.226-0.03,1.73-0.03c3.11,0,6.228,0.503,9.013,1.452c4.207,1.363,8.666,3.733,11.717,6.785
						C721.378,2575.83,725.215,2582.881,725.215,2590.644z"/>
					
						<linearGradient id="SVGID_00000103945239530631612950000009551151389519899816_" gradientUnits="userSpaceOnUse" x1="694.2148" y1="2775.822" x2="725.215" y2="2775.822">
						<stop  offset="0" style="stop-color:#FF9085"/>
						<stop  offset="1" style="stop-color:#FB6FBB"/>
					</linearGradient>
					<path style="opacity:0.6;fill:url(#SVGID_00000103945239530631612950000009551151389519899816_);" d="M725.215,2590.644V2961
						c0,12.444-8.692,22.992-19.893,26.695c-2.785,0.948-6.147,1.452-9.257,1.452c-0.503,0-1.85,0-1.85-0.03v-426.591
						c0-0.03,1.03-0.03,1.533-0.03c3.11,0,6.13,0.503,8.914,1.452c4.207,1.363,8.617,3.733,11.668,6.785
						C721.427,2575.83,725.215,2582.881,725.215,2590.644z"/>
				</g>
				<g>
					
						<linearGradient id="SVGID_00000014594462058336797490000015062770770417391026_" gradientUnits="userSpaceOnUse" x1="766.5486" y1="2775.822" x2="821.66" y2="2775.822">
						<stop  offset="0" style="stop-color:#FF9085"/>
						<stop  offset="1" style="stop-color:#FB6FBB"/>
					</linearGradient>
					<path style="opacity:0.6;fill:url(#SVGID_00000014594462058336797490000015062770770417391026_);" d="M821.66,2590.644V2961
						c0,12.444-8.028,22.992-19.228,26.695c-2.785,0.948-5.763,1.452-8.873,1.452c-0.503,0-0.97,0-1.474-0.03
						c-7.17-0.385-13.094-3.437-17.864-8.207c-5.097-5.096-7.673-12.148-7.673-19.91v-370.356c0-15.052,11.231-27.347,26.105-28.117
						c0.503-0.03,0.698-0.03,1.201-0.03c3.11,0,5.963,0.503,8.748,1.452c4.207,1.363,7.869,3.733,10.92,6.785
						C818.62,2575.83,821.66,2582.881,821.66,2590.644z"/>
					
						<linearGradient id="SVGID_00000032615694011524491520000006255929764266636423_" gradientUnits="userSpaceOnUse" x1="790.6598" y1="2775.822" x2="821.66" y2="2775.822">
						<stop  offset="0" style="stop-color:#FF9085"/>
						<stop  offset="1" style="stop-color:#FB6FBB"/>
					</linearGradient>
					<path style="opacity:0.6;fill:url(#SVGID_00000032615694011524491520000006255929764266636423_);" d="M821.66,2590.644V2961
						c0,12.444-8.028,22.992-19.228,26.695c-2.785,0.948-6.479,1.452-9.59,1.452c-0.503,0,1.262,0-2.183-0.03v-426.591
						c3.445-0.03,1.694-0.03,2.198-0.03c3.11,0,6.462,0.503,9.247,1.452c4.207,1.363,8.118,3.733,11.17,6.785
						C818.371,2575.83,821.66,2582.881,821.66,2590.644z"/>
				</g>
				<g>
					
						<linearGradient id="SVGID_00000127753740189307990380000004954933881731761285_" gradientUnits="userSpaceOnUse" x1="862.9936" y1="2775.822" x2="918.1051" y2="2775.822">
						<stop  offset="0" style="stop-color:#FF9085"/>
						<stop  offset="1" style="stop-color:#FB6FBB"/>
					</linearGradient>
					<path style="opacity:0.6;fill:url(#SVGID_00000127753740189307990380000004954933881731761285_);" d="M918.105,2590.644V2961
						c0,12.444-7.363,22.992-18.563,26.695c-2.785,0.948-5.431,1.452-8.541,1.452c-0.504,0-0.804,0-1.308-0.03
						c-7.17-0.385-13.675-3.437-18.445-8.207c-5.097-5.096-8.254-12.148-8.254-19.91v-370.356c0-15.052,11.896-27.347,26.769-28.117
						c0.503-0.03,1.03-0.03,1.533-0.03c3.11,0,6.13,0.503,8.914,1.452c4.207,1.363,7.288,3.733,10.339,6.785
						C915.646,2575.83,918.105,2582.881,918.105,2590.644z"/>
					
						<linearGradient id="SVGID_00000021837241081616037180000017151219240552992915_" gradientUnits="userSpaceOnUse" x1="890.5494" y1="2775.822" x2="918.1051" y2="2775.822">
						<stop  offset="0" style="stop-color:#FF9085"/>
						<stop  offset="1" style="stop-color:#FB6FBB"/>
					</linearGradient>
					<path style="opacity:0.6;fill:url(#SVGID_00000021837241081616037180000017151219240552992915_);" d="M918.105,2590.644V2961
						c0,12.444-7.363,22.992-18.563,26.695c-2.785,0.948-5.089,1.452-8.2,1.452c-0.503,0-0.793,0-0.793-0.03v-426.591
						c0-0.03,0.637-0.03,1.14-0.03c3.11,0,5.933,0.503,8.718,1.452c4.207,1.363,7.19,3.733,10.241,6.785
						C915.745,2575.83,918.105,2582.881,918.105,2590.644z"/>
				</g>
			</g>
		</g>
	</g>
</g>
</svg>
